<svg width="334" height="38" viewBox="0 0 334 38" fill="none" xmlns="http://www.w3.org/2000/svg">
<path d="M3.69102 24.5654C3.69102 23.4717 3.8082 22.334 4.04258 21.1523C4.27695 19.9609 4.61387 18.7939 5.05332 17.6514C5.50254 16.5088 6.04453 15.4248 6.6793 14.3994C7.31406 13.3643 8.02695 12.4609 8.81797 11.6895C9.60898 10.9082 10.4732 10.2881 11.4107 9.8291C12.3482 9.37012 13.3443 9.14062 14.399 9.14062C15.3365 9.14062 16.1178 9.29688 16.7428 9.60938C17.3678 9.92187 17.8658 10.3418 18.2369 10.8691C18.6178 11.3867 18.8863 11.9873 19.0426 12.6709C19.1988 13.3447 19.277 14.043 19.277 14.7656C19.277 15.8008 19.1549 16.9141 18.9107 18.1055C18.6666 19.2871 18.315 20.4639 17.8561 21.6357C17.3971 22.8076 16.8453 23.9307 16.2008 25.0049C15.5562 26.0791 14.8336 27.0312 14.0328 27.8613C13.2418 28.6816 12.3775 29.3408 11.44 29.8389C10.5025 30.3271 9.52109 30.5713 8.4957 30.5713C7.57773 30.5713 6.81113 30.4053 6.1959 30.0732C5.58066 29.7412 5.0875 29.3018 4.71641 28.7549C4.34531 28.1982 4.08164 27.5586 3.92539 26.8359C3.76914 26.1133 3.69102 25.3564 3.69102 24.5654ZM8.71543 29.8389C9.36973 29.8389 10.0045 29.6826 10.6197 29.3701C11.2447 29.0576 11.8404 28.6328 12.4068 28.0957C12.9732 27.5586 13.5055 26.9287 14.0035 26.2061C14.5113 25.4736 14.9801 24.6924 15.4098 23.8623C15.8395 23.0322 16.2252 22.168 16.567 21.2695C16.9186 20.3613 17.2115 19.4678 17.4459 18.5889C17.69 17.7002 17.8756 16.8457 18.0025 16.0254C18.1295 15.1953 18.193 14.4336 18.193 13.7402C18.193 13.2129 18.1393 12.71 18.0318 12.2314C17.9342 11.7432 17.7584 11.3135 17.5045 10.9424C17.2604 10.5713 16.9283 10.2783 16.5084 10.0635C16.0885 9.83887 15.5611 9.72656 14.9264 9.72656C14.2525 9.72656 13.608 9.88281 12.9928 10.1953C12.3775 10.498 11.7916 10.918 11.235 11.4551C10.6783 11.9922 10.1559 12.627 9.66758 13.3594C9.1793 14.082 8.73008 14.8633 8.31992 15.7031C7.91953 16.543 7.5582 17.417 7.23594 18.3252C6.91367 19.2334 6.64023 20.1416 6.41562 21.0498C6.20078 21.958 6.03477 22.8418 5.91758 23.7012C5.80039 24.5605 5.7418 25.3564 5.7418 26.0889C5.7418 26.6162 5.79062 27.1094 5.88828 27.5684C5.98594 28.0176 6.14707 28.4131 6.37168 28.7549C6.60605 29.0869 6.91367 29.3506 7.29453 29.5459C7.67539 29.7412 8.14902 29.8389 8.71543 29.8389ZM25.9701 30L32.2396 12.2607C31.5658 13.0225 30.8627 13.6719 30.1303 14.209C29.3979 14.7363 28.6654 15.1709 27.933 15.5127C27.2104 15.8545 26.5072 16.1035 25.8236 16.2598C25.14 16.416 24.5102 16.4941 23.934 16.4941V16.0107C24.6371 16.0107 25.4184 15.8789 26.2777 15.6152C27.1371 15.3418 28.0111 14.9268 28.8998 14.3701C29.7885 13.8135 30.6576 13.1055 31.5072 12.2461C32.3666 11.377 33.1381 10.3418 33.8217 9.14062H35.7553L28.226 30H25.9701Z" fill="black"/>
<line x1="46.25" y1="18.75" x2="126.25" y2="18.75" stroke="black" stroke-width="0.5"/>
<path d="M150.954 22.377C150.954 21.6478 151.032 20.8893 151.188 20.1016C151.344 19.3073 151.569 18.5293 151.862 17.7676C152.161 17.0059 152.523 16.2832 152.946 15.5996C153.369 14.9095 153.844 14.3073 154.371 13.793C154.899 13.2721 155.475 12.8587 156.1 12.5527C156.725 12.2467 157.389 12.0938 158.092 12.0938C158.717 12.0938 159.238 12.1979 159.655 12.4062C160.071 12.6146 160.403 12.8945 160.651 13.2461C160.905 13.5911 161.084 13.9915 161.188 14.4473C161.292 14.8965 161.344 15.362 161.344 15.8438C161.344 16.5339 161.263 17.276 161.1 18.0703C160.937 18.8581 160.703 19.6426 160.397 20.4238C160.091 21.2051 159.723 21.9538 159.293 22.6699C158.864 23.3861 158.382 24.0208 157.848 24.5742C157.321 25.1211 156.745 25.5605 156.12 25.8926C155.495 26.2181 154.84 26.3809 154.157 26.3809C153.545 26.3809 153.034 26.2702 152.623 26.0488C152.213 25.8275 151.885 25.5345 151.637 25.1699C151.39 24.7988 151.214 24.3724 151.11 23.8906C151.006 23.4089 150.954 22.9043 150.954 22.377ZM154.303 25.8926C154.739 25.8926 155.163 25.7884 155.573 25.5801C155.989 25.3717 156.386 25.0885 156.764 24.7305C157.142 24.3724 157.496 23.9525 157.829 23.4707C158.167 22.9824 158.48 22.4616 158.766 21.9082C159.052 21.3548 159.31 20.7786 159.538 20.1797C159.772 19.5742 159.967 18.9785 160.123 18.3926C160.286 17.8001 160.41 17.2305 160.495 16.6836C160.579 16.1302 160.621 15.6224 160.621 15.1602C160.621 14.8086 160.586 14.4733 160.514 14.1543C160.449 13.8288 160.332 13.5423 160.163 13.2949C160 13.0475 159.778 12.8522 159.498 12.709C159.218 12.5592 158.867 12.4844 158.444 12.4844C157.995 12.4844 157.565 12.5885 157.155 12.7969C156.745 12.9987 156.354 13.2786 155.983 13.6367C155.612 13.9948 155.263 14.418 154.938 14.9062C154.612 15.388 154.313 15.9089 154.039 16.4688C153.773 17.0286 153.532 17.6113 153.317 18.2168C153.102 18.8223 152.92 19.4277 152.77 20.0332C152.627 20.6387 152.516 21.2279 152.438 21.8008C152.36 22.3737 152.321 22.9043 152.321 23.3926C152.321 23.7441 152.353 24.0729 152.418 24.3789C152.483 24.6784 152.591 24.9421 152.741 25.1699C152.897 25.3913 153.102 25.5671 153.356 25.6973C153.61 25.8275 153.926 25.8926 154.303 25.8926ZM171.959 26.0098H163.043L163.57 24.5449C163.694 24.1999 163.905 23.8516 164.205 23.5C164.511 23.1484 164.872 22.7904 165.289 22.4258C165.705 22.0612 166.158 21.6901 166.646 21.3125C167.134 20.9349 167.623 20.5475 168.111 20.1504C168.599 19.7533 169.071 19.3464 169.527 18.9297C169.989 18.513 170.396 18.0866 170.748 17.6504C171.099 17.2077 171.379 16.7552 171.588 16.293C171.802 15.8242 171.91 15.3392 171.91 14.8379C171.91 14.5449 171.864 14.2552 171.773 13.9688C171.688 13.6758 171.542 13.4186 171.334 13.1973C171.132 12.9694 170.862 12.7871 170.523 12.6504C170.185 12.5072 169.765 12.4355 169.263 12.4355C168.638 12.4355 168.075 12.5462 167.574 12.7676C167.079 12.9889 166.653 13.2819 166.295 13.6465C165.936 14.0046 165.657 14.4147 165.455 14.877C165.259 15.3392 165.149 15.8145 165.123 16.3027H164.683C164.703 15.7689 164.817 15.248 165.025 14.7402C165.233 14.2259 165.533 13.7702 165.923 13.373C166.321 12.9759 166.806 12.6569 167.379 12.416C167.951 12.1686 168.615 12.0449 169.371 12.0449C169.918 12.0449 170.432 12.1133 170.914 12.25C171.402 12.3867 171.828 12.5853 172.193 12.8457C172.564 13.1061 172.854 13.4251 173.062 13.8027C173.277 14.1803 173.384 14.6133 173.384 15.1016C173.384 15.6224 173.264 16.127 173.023 16.6152C172.789 17.1035 172.473 17.5788 172.076 18.041C171.679 18.4967 171.223 18.9395 170.709 19.3691C170.201 19.7988 169.673 20.2122 169.127 20.6094C168.58 21.0065 168.036 21.3874 167.496 21.752C166.962 22.11 166.47 22.4551 166.021 22.7871C165.572 23.1126 165.188 23.4251 164.869 23.7246C164.55 24.0176 164.338 24.291 164.234 24.5449H172.574L171.959 26.0098Z" fill="black"/>
<line x1="196.75" y1="18.75" x2="276.75" y2="18.75" stroke="black" stroke-width="0.5"/>
<path d="M299.258 22.377C299.258 21.6478 299.336 20.8893 299.493 20.1016C299.649 19.3073 299.873 18.5293 300.166 17.7676C300.466 17.0059 300.827 16.2832 301.25 15.5996C301.674 14.9095 302.149 14.3073 302.676 13.793C303.204 13.2721 303.78 12.8587 304.405 12.5527C305.03 12.2467 305.694 12.0938 306.397 12.0938C307.022 12.0938 307.543 12.1979 307.959 12.4062C308.376 12.6146 308.708 12.8945 308.955 13.2461C309.209 13.5911 309.388 13.9915 309.493 14.4473C309.597 14.8965 309.649 15.362 309.649 15.8438C309.649 16.5339 309.567 17.276 309.405 18.0703C309.242 18.8581 309.008 19.6426 308.702 20.4238C308.396 21.2051 308.028 21.9538 307.598 22.6699C307.168 23.3861 306.687 24.0208 306.153 24.5742C305.625 25.1211 305.049 25.5605 304.424 25.8926C303.799 26.2181 303.145 26.3809 302.461 26.3809C301.849 26.3809 301.338 26.2702 300.928 26.0488C300.518 25.8275 300.189 25.5345 299.942 25.1699C299.694 24.7988 299.519 24.3724 299.414 23.8906C299.31 23.4089 299.258 22.9043 299.258 22.377ZM302.608 25.8926C303.044 25.8926 303.467 25.7884 303.877 25.5801C304.294 25.3717 304.691 25.0885 305.069 24.7305C305.446 24.3724 305.801 23.9525 306.133 23.4707C306.472 22.9824 306.784 22.4616 307.071 21.9082C307.357 21.3548 307.614 20.7786 307.842 20.1797C308.077 19.5742 308.272 18.9785 308.428 18.3926C308.591 17.8001 308.715 17.2305 308.799 16.6836C308.884 16.1302 308.926 15.6224 308.926 15.1602C308.926 14.8086 308.89 14.4733 308.819 14.1543C308.754 13.8288 308.636 13.5423 308.467 13.2949C308.304 13.0475 308.083 12.8522 307.803 12.709C307.523 12.5592 307.172 12.4844 306.748 12.4844C306.299 12.4844 305.87 12.5885 305.459 12.7969C305.049 12.9987 304.659 13.2786 304.288 13.6367C303.916 13.9948 303.568 14.418 303.243 14.9062C302.917 15.388 302.618 15.9089 302.344 16.4688C302.077 17.0286 301.836 17.6113 301.621 18.2168C301.407 18.8223 301.224 19.4277 301.075 20.0332C300.931 20.6387 300.821 21.2279 300.743 21.8008C300.664 22.3737 300.625 22.9043 300.625 23.3926C300.625 23.7441 300.658 24.0729 300.723 24.3789C300.788 24.6784 300.896 24.9421 301.045 25.1699C301.202 25.3913 301.407 25.5671 301.661 25.6973C301.914 25.8275 302.23 25.8926 302.608 25.8926ZM314.326 15.1895C314.326 14.6816 314.44 14.2357 314.668 13.8516C314.895 13.4609 315.195 13.1354 315.566 12.875C315.937 12.6146 316.357 12.4193 316.826 12.2891C317.295 12.1589 317.77 12.0938 318.252 12.0938C318.714 12.0938 319.163 12.1556 319.599 12.2793C320.035 12.403 320.423 12.5885 320.761 12.8359C321.1 13.0768 321.37 13.3828 321.572 13.7539C321.78 14.1185 321.884 14.5449 321.884 15.0332C321.884 15.4759 321.796 15.8958 321.621 16.293C321.451 16.6836 321.207 17.0352 320.888 17.3477C320.576 17.6536 320.195 17.9108 319.746 18.1191C319.303 18.321 318.805 18.4512 318.252 18.5098C318.74 18.6595 319.163 18.8548 319.521 19.0957C319.879 19.3366 320.172 19.6068 320.4 19.9062C320.634 20.2057 320.807 20.5312 320.918 20.8828C321.028 21.2279 321.084 21.5794 321.084 21.9375C321.084 22.4779 320.966 23.015 320.732 23.5488C320.498 24.0762 320.162 24.5514 319.726 24.9746C319.296 25.3913 318.769 25.7298 318.144 25.9902C317.519 26.2507 316.816 26.3809 316.035 26.3809C315.384 26.3809 314.821 26.2962 314.345 26.127C313.87 25.9642 313.479 25.7428 313.173 25.4629C312.867 25.1829 312.64 24.8639 312.49 24.5059C312.34 24.1478 312.265 23.7734 312.265 23.3828C312.265 23.2331 312.278 23.0638 312.304 22.875C312.33 22.6862 312.379 22.4876 312.451 22.2793C312.522 22.071 312.617 21.8561 312.734 21.6348C312.851 21.4134 313.004 21.1953 313.193 20.9805L313.427 21.2832C313.278 21.459 313.154 21.6445 313.056 21.8398C312.959 22.0286 312.88 22.2142 312.822 22.3965C312.77 22.5788 312.734 22.7546 312.714 22.9238C312.695 23.0866 312.685 23.2298 312.685 23.3535C312.685 23.7246 312.757 24.0664 312.9 24.3789C313.05 24.6849 313.255 24.9518 313.515 25.1797C313.782 25.4076 314.101 25.5866 314.472 25.7168C314.85 25.8405 315.263 25.9023 315.713 25.9023C316.331 25.9023 316.878 25.7819 317.353 25.541C317.835 25.3001 318.239 24.9876 318.564 24.6035C318.89 24.2129 319.137 23.7767 319.306 23.2949C319.476 22.8066 319.56 22.3184 319.56 21.8301C319.56 21.4525 319.508 21.0879 319.404 20.7363C319.3 20.3848 319.14 20.0658 318.925 19.7793C318.711 19.4928 318.44 19.252 318.115 19.0566C317.789 18.8548 317.405 18.7181 316.963 18.6465C316.93 18.6595 316.878 18.6758 316.806 18.6953C316.735 18.7148 316.666 18.7246 316.601 18.7246C316.412 18.7246 316.318 18.6693 316.318 18.5586C316.318 18.4544 316.412 18.4023 316.601 18.4023C316.673 18.4023 316.741 18.4121 316.806 18.4316C316.871 18.4447 316.927 18.4609 316.972 18.4805C317.578 18.4154 318.092 18.2721 318.515 18.0508C318.945 17.8229 319.296 17.5462 319.57 17.2207C319.843 16.8952 320.042 16.5371 320.166 16.1465C320.296 15.7493 320.361 15.3522 320.361 14.9551C320.361 14.5254 320.293 14.1576 320.156 13.8516C320.026 13.5456 319.85 13.2949 319.629 13.0996C319.414 12.9043 319.16 12.7611 318.867 12.6699C318.58 12.5788 318.281 12.5332 317.968 12.5332C317.584 12.5332 317.2 12.5983 316.816 12.7285C316.432 12.8522 316.087 13.0312 315.781 13.2656C315.475 13.4935 315.224 13.7734 315.029 14.1055C314.84 14.431 314.746 14.7923 314.746 15.1895H314.326Z" fill="black"/>
</svg>
