<svg width="326" height="38" viewBox="0 0 326 38" fill="none" xmlns="http://www.w3.org/2000/svg">
<path d="M3.69102 24.5654C3.69102 23.4717 3.8082 22.334 4.04258 21.1523C4.27695 19.9609 4.61387 18.7939 5.05332 17.6514C5.50254 16.5088 6.04453 15.4248 6.6793 14.3994C7.31406 13.3643 8.02695 12.4609 8.81797 11.6895C9.60898 10.9082 10.4732 10.2881 11.4107 9.8291C12.3482 9.37012 13.3443 9.14062 14.399 9.14062C15.3365 9.14062 16.1178 9.29688 16.7428 9.60938C17.3678 9.92187 17.8658 10.3418 18.2369 10.8691C18.6178 11.3867 18.8863 11.9873 19.0426 12.6709C19.1988 13.3447 19.277 14.043 19.277 14.7656C19.277 15.8008 19.1549 16.9141 18.9107 18.1055C18.6666 19.2871 18.315 20.4639 17.8561 21.6357C17.3971 22.8076 16.8453 23.9307 16.2008 25.0049C15.5562 26.0791 14.8336 27.0312 14.0328 27.8613C13.2418 28.6816 12.3775 29.3408 11.44 29.8389C10.5025 30.3271 9.52109 30.5713 8.4957 30.5713C7.57773 30.5713 6.81113 30.4053 6.1959 30.0732C5.58066 29.7412 5.0875 29.3018 4.71641 28.7549C4.34531 28.1982 4.08164 27.5586 3.92539 26.8359C3.76914 26.1133 3.69102 25.3564 3.69102 24.5654ZM8.71543 29.8389C9.36973 29.8389 10.0045 29.6826 10.6197 29.3701C11.2447 29.0576 11.8404 28.6328 12.4068 28.0957C12.9732 27.5586 13.5055 26.9287 14.0035 26.2061C14.5113 25.4736 14.9801 24.6924 15.4098 23.8623C15.8395 23.0322 16.2252 22.168 16.567 21.2695C16.9186 20.3613 17.2115 19.4678 17.4459 18.5889C17.69 17.7002 17.8756 16.8457 18.0025 16.0254C18.1295 15.1953 18.193 14.4336 18.193 13.7402C18.193 13.2129 18.1393 12.71 18.0318 12.2314C17.9342 11.7432 17.7584 11.3135 17.5045 10.9424C17.2604 10.5713 16.9283 10.2783 16.5084 10.0635C16.0885 9.83887 15.5611 9.72656 14.9264 9.72656C14.2525 9.72656 13.608 9.88281 12.9928 10.1953C12.3775 10.498 11.7916 10.918 11.235 11.4551C10.6783 11.9922 10.1559 12.627 9.66758 13.3594C9.1793 14.082 8.73008 14.8633 8.31992 15.7031C7.91953 16.543 7.5582 17.417 7.23594 18.3252C6.91367 19.2334 6.64023 20.1416 6.41562 21.0498C6.20078 21.958 6.03477 22.8418 5.91758 23.7012C5.80039 24.5605 5.7418 25.3564 5.7418 26.0889C5.7418 26.6162 5.79062 27.1094 5.88828 27.5684C5.98594 28.0176 6.14707 28.4131 6.37168 28.7549C6.60605 29.0869 6.91367 29.3506 7.29453 29.5459C7.67539 29.7412 8.14902 29.8389 8.71543 29.8389ZM25.9701 30L32.2396 12.2607C31.5658 13.0225 30.8627 13.6719 30.1303 14.209C29.3979 14.7363 28.6654 15.1709 27.933 15.5127C27.2104 15.8545 26.5072 16.1035 25.8236 16.2598C25.14 16.416 24.5102 16.4941 23.934 16.4941V16.0107C24.6371 16.0107 25.4184 15.8789 26.2777 15.6152C27.1371 15.3418 28.0111 14.9268 28.8998 14.3701C29.7885 13.8135 30.6576 13.1055 31.5072 12.2461C32.3666 11.377 33.1381 10.3418 33.8217 9.14062H35.7553L28.226 30H25.9701Z" fill="black"/>
<line x1="37.5" y1="18.75" x2="83.5" y2="18.75" stroke="black" stroke-width="0.5"/>
<path d="M99.4535 22.377C99.4535 21.6478 99.5316 20.8893 99.6879 20.1016C99.8441 19.3073 100.069 18.5293 100.362 17.7676C100.661 17.0059 101.023 16.2832 101.446 15.5996C101.869 14.9095 102.344 14.3073 102.871 13.793C103.399 13.2721 103.975 12.8587 104.6 12.5527C105.225 12.2467 105.889 12.0938 106.592 12.0938C107.217 12.0938 107.738 12.1979 108.155 12.4062C108.571 12.6146 108.903 12.8945 109.151 13.2461C109.405 13.5911 109.584 13.9915 109.688 14.4473C109.792 14.8965 109.844 15.362 109.844 15.8438C109.844 16.5339 109.763 17.276 109.6 18.0703C109.437 18.8581 109.203 19.6426 108.897 20.4238C108.591 21.2051 108.223 21.9538 107.793 22.6699C107.364 23.3861 106.882 24.0208 106.348 24.5742C105.821 25.1211 105.245 25.5605 104.62 25.8926C103.995 26.2181 103.34 26.3809 102.657 26.3809C102.045 26.3809 101.534 26.2702 101.123 26.0488C100.713 25.8275 100.385 25.5345 100.137 25.1699C99.8897 24.7988 99.7139 24.3724 99.6098 23.8906C99.5056 23.4089 99.4535 22.9043 99.4535 22.377ZM102.803 25.8926C103.239 25.8926 103.663 25.7884 104.073 25.5801C104.489 25.3717 104.886 25.0885 105.264 24.7305C105.642 24.3724 105.996 23.9525 106.329 23.4707C106.667 22.9824 106.98 22.4616 107.266 21.9082C107.552 21.3548 107.81 20.7786 108.038 20.1797C108.272 19.5742 108.467 18.9785 108.623 18.3926C108.786 17.8001 108.91 17.2305 108.995 16.6836C109.079 16.1302 109.121 15.6224 109.121 15.1602C109.121 14.8086 109.086 14.4733 109.014 14.1543C108.949 13.8288 108.832 13.5423 108.663 13.2949C108.5 13.0475 108.278 12.8522 107.998 12.709C107.718 12.5592 107.367 12.4844 106.944 12.4844C106.495 12.4844 106.065 12.5885 105.655 12.7969C105.245 12.9987 104.854 13.2786 104.483 13.6367C104.112 13.9948 103.763 14.418 103.438 14.9062C103.112 15.388 102.813 15.9089 102.539 16.4688C102.273 17.0286 102.032 17.6113 101.817 18.2168C101.602 18.8223 101.42 19.4277 101.27 20.0332C101.127 20.6387 101.016 21.2279 100.938 21.8008C100.86 22.3737 100.821 22.9043 100.821 23.3926C100.821 23.7441 100.853 24.0729 100.918 24.3789C100.983 24.6784 101.091 24.9421 101.241 25.1699C101.397 25.3913 101.602 25.5671 101.856 25.6973C102.11 25.8275 102.426 25.8926 102.803 25.8926ZM120.459 26.0098H111.543L112.07 24.5449C112.194 24.1999 112.405 23.8516 112.705 23.5C113.011 23.1484 113.372 22.7904 113.789 22.4258C114.205 22.0612 114.658 21.6901 115.146 21.3125C115.634 20.9349 116.123 20.5475 116.611 20.1504C117.099 19.7533 117.571 19.3464 118.027 18.9297C118.489 18.513 118.896 18.0866 119.248 17.6504C119.599 17.2077 119.879 16.7552 120.088 16.293C120.302 15.8242 120.41 15.3392 120.41 14.8379C120.41 14.5449 120.364 14.2552 120.273 13.9688C120.188 13.6758 120.042 13.4186 119.834 13.1973C119.632 12.9694 119.362 12.7871 119.023 12.6504C118.685 12.5072 118.265 12.4355 117.763 12.4355C117.138 12.4355 116.575 12.5462 116.074 12.7676C115.579 12.9889 115.153 13.2819 114.795 13.6465C114.436 14.0046 114.157 14.4147 113.955 14.877C113.759 15.3392 113.649 15.8145 113.623 16.3027H113.183C113.203 15.7689 113.317 15.248 113.525 14.7402C113.733 14.2259 114.033 13.7702 114.423 13.373C114.821 12.9759 115.306 12.6569 115.879 12.416C116.451 12.1686 117.115 12.0449 117.871 12.0449C118.418 12.0449 118.932 12.1133 119.414 12.25C119.902 12.3867 120.328 12.5853 120.693 12.8457C121.064 13.1061 121.354 13.4251 121.562 13.8027C121.777 14.1803 121.884 14.6133 121.884 15.1016C121.884 15.6224 121.764 16.127 121.523 16.6152C121.289 17.1035 120.973 17.5788 120.576 18.041C120.179 18.4967 119.723 18.9395 119.209 19.3691C118.701 19.7988 118.173 20.2122 117.627 20.6094C117.08 21.0065 116.536 21.3874 115.996 21.752C115.462 22.11 114.97 22.4551 114.521 22.7871C114.072 23.1126 113.688 23.4251 113.369 23.7246C113.05 24.0176 112.838 24.291 112.734 24.5449H121.074L120.459 26.0098Z" fill="black"/>
<line x1="136.5" y1="18.75" x2="182.5" y2="18.75" stroke="black" stroke-width="0.5"/>
<path d="M196.258 22.377C196.258 21.6478 196.336 20.8893 196.493 20.1016C196.649 19.3073 196.873 18.5293 197.166 17.7676C197.466 17.0059 197.827 16.2832 198.25 15.5996C198.674 14.9095 199.149 14.3073 199.676 13.793C200.204 13.2721 200.78 12.8587 201.405 12.5527C202.03 12.2467 202.694 12.0938 203.397 12.0938C204.022 12.0938 204.543 12.1979 204.959 12.4062C205.376 12.6146 205.708 12.8945 205.955 13.2461C206.209 13.5911 206.388 13.9915 206.493 14.4473C206.597 14.8965 206.649 15.362 206.649 15.8438C206.649 16.5339 206.567 17.276 206.405 18.0703C206.242 18.8581 206.008 19.6426 205.702 20.4238C205.396 21.2051 205.028 21.9538 204.598 22.6699C204.168 23.3861 203.687 24.0208 203.153 24.5742C202.625 25.1211 202.049 25.5605 201.424 25.8926C200.799 26.2181 200.145 26.3809 199.461 26.3809C198.849 26.3809 198.338 26.2702 197.928 26.0488C197.518 25.8275 197.189 25.5345 196.942 25.1699C196.694 24.7988 196.519 24.3724 196.414 23.8906C196.31 23.4089 196.258 22.9043 196.258 22.377ZM199.608 25.8926C200.044 25.8926 200.467 25.7884 200.877 25.5801C201.294 25.3717 201.691 25.0885 202.069 24.7305C202.446 24.3724 202.801 23.9525 203.133 23.4707C203.472 22.9824 203.784 22.4616 204.071 21.9082C204.357 21.3548 204.614 20.7786 204.842 20.1797C205.077 19.5742 205.272 18.9785 205.428 18.3926C205.591 17.8001 205.715 17.2305 205.799 16.6836C205.884 16.1302 205.926 15.6224 205.926 15.1602C205.926 14.8086 205.89 14.4733 205.819 14.1543C205.754 13.8288 205.636 13.5423 205.467 13.2949C205.304 13.0475 205.083 12.8522 204.803 12.709C204.523 12.5592 204.172 12.4844 203.748 12.4844C203.299 12.4844 202.87 12.5885 202.459 12.7969C202.049 12.9987 201.659 13.2786 201.288 13.6367C200.916 13.9948 200.568 14.418 200.243 14.9062C199.917 15.388 199.618 15.9089 199.344 16.4688C199.077 17.0286 198.836 17.6113 198.621 18.2168C198.407 18.8223 198.224 19.4277 198.075 20.0332C197.931 20.6387 197.821 21.2279 197.743 21.8008C197.664 22.3737 197.625 22.9043 197.625 23.3926C197.625 23.7441 197.658 24.0729 197.723 24.3789C197.788 24.6784 197.896 24.9421 198.045 25.1699C198.202 25.3913 198.407 25.5671 198.661 25.6973C198.914 25.8275 199.23 25.8926 199.608 25.8926ZM211.326 15.1895C211.326 14.6816 211.44 14.2357 211.668 13.8516C211.895 13.4609 212.195 13.1354 212.566 12.875C212.937 12.6146 213.357 12.4193 213.826 12.2891C214.295 12.1589 214.77 12.0938 215.252 12.0938C215.714 12.0938 216.163 12.1556 216.599 12.2793C217.035 12.403 217.423 12.5885 217.761 12.8359C218.1 13.0768 218.37 13.3828 218.572 13.7539C218.78 14.1185 218.884 14.5449 218.884 15.0332C218.884 15.4759 218.796 15.8958 218.621 16.293C218.451 16.6836 218.207 17.0352 217.888 17.3477C217.576 17.6536 217.195 17.9108 216.746 18.1191C216.303 18.321 215.805 18.4512 215.252 18.5098C215.74 18.6595 216.163 18.8548 216.521 19.0957C216.879 19.3366 217.172 19.6068 217.4 19.9062C217.634 20.2057 217.807 20.5312 217.918 20.8828C218.028 21.2279 218.084 21.5794 218.084 21.9375C218.084 22.4779 217.966 23.015 217.732 23.5488C217.498 24.0762 217.162 24.5514 216.726 24.9746C216.296 25.3913 215.769 25.7298 215.144 25.9902C214.519 26.2507 213.816 26.3809 213.035 26.3809C212.384 26.3809 211.821 26.2962 211.345 26.127C210.87 25.9642 210.479 25.7428 210.173 25.4629C209.867 25.1829 209.64 24.8639 209.49 24.5059C209.34 24.1478 209.265 23.7734 209.265 23.3828C209.265 23.2331 209.278 23.0638 209.304 22.875C209.33 22.6862 209.379 22.4876 209.451 22.2793C209.522 22.071 209.617 21.8561 209.734 21.6348C209.851 21.4134 210.004 21.1953 210.193 20.9805L210.427 21.2832C210.278 21.459 210.154 21.6445 210.056 21.8398C209.959 22.0286 209.88 22.2142 209.822 22.3965C209.77 22.5788 209.734 22.7546 209.714 22.9238C209.695 23.0866 209.685 23.2298 209.685 23.3535C209.685 23.7246 209.757 24.0664 209.9 24.3789C210.05 24.6849 210.255 24.9518 210.515 25.1797C210.782 25.4076 211.101 25.5866 211.472 25.7168C211.85 25.8405 212.263 25.9023 212.713 25.9023C213.331 25.9023 213.878 25.7819 214.353 25.541C214.835 25.3001 215.239 24.9876 215.564 24.6035C215.89 24.2129 216.137 23.7767 216.306 23.2949C216.476 22.8066 216.56 22.3184 216.56 21.8301C216.56 21.4525 216.508 21.0879 216.404 20.7363C216.3 20.3848 216.14 20.0658 215.925 19.7793C215.711 19.4928 215.44 19.252 215.115 19.0566C214.789 18.8548 214.405 18.7181 213.963 18.6465C213.93 18.6595 213.878 18.6758 213.806 18.6953C213.735 18.7148 213.666 18.7246 213.601 18.7246C213.412 18.7246 213.318 18.6693 213.318 18.5586C213.318 18.4544 213.412 18.4023 213.601 18.4023C213.673 18.4023 213.741 18.4121 213.806 18.4316C213.871 18.4447 213.927 18.4609 213.972 18.4805C214.578 18.4154 215.092 18.2721 215.515 18.0508C215.945 17.8229 216.296 17.5462 216.57 17.2207C216.843 16.8952 217.042 16.5371 217.166 16.1465C217.296 15.7493 217.361 15.3522 217.361 14.9551C217.361 14.5254 217.293 14.1576 217.156 13.8516C217.026 13.5456 216.85 13.2949 216.629 13.0996C216.414 12.9043 216.16 12.7611 215.867 12.6699C215.58 12.5788 215.281 12.5332 214.968 12.5332C214.584 12.5332 214.2 12.5983 213.816 12.7285C213.432 12.8522 213.087 13.0312 212.781 13.2656C212.475 13.4935 212.224 13.7734 212.029 14.1055C211.84 14.431 211.746 14.7923 211.746 15.1895H211.326Z" fill="black"/>
<line x1="231.5" y1="18.75" x2="277.5" y2="18.75" stroke="black" stroke-width="0.5"/>
<path d="M291.336 22.377C291.336 21.6478 291.414 20.8893 291.571 20.1016C291.727 19.3073 291.952 18.5293 292.245 17.7676C292.544 17.0059 292.905 16.2832 293.329 15.5996C293.752 14.9095 294.227 14.3073 294.754 13.793C295.282 13.2721 295.858 12.8587 296.483 12.5527C297.108 12.2467 297.772 12.0938 298.475 12.0938C299.1 12.0938 299.621 12.1979 300.038 12.4062C300.454 12.6146 300.786 12.8945 301.034 13.2461C301.288 13.5911 301.467 13.9915 301.571 14.4473C301.675 14.8965 301.727 15.362 301.727 15.8438C301.727 16.5339 301.646 17.276 301.483 18.0703C301.32 18.8581 301.086 19.6426 300.78 20.4238C300.474 21.2051 300.106 21.9538 299.676 22.6699C299.246 23.3861 298.765 24.0208 298.231 24.5742C297.704 25.1211 297.127 25.5605 296.502 25.8926C295.877 26.2181 295.223 26.3809 294.539 26.3809C293.927 26.3809 293.416 26.2702 293.006 26.0488C292.596 25.8275 292.267 25.5345 292.02 25.1699C291.773 24.7988 291.597 24.3724 291.493 23.8906C291.388 23.4089 291.336 22.9043 291.336 22.377ZM294.686 25.8926C295.122 25.8926 295.545 25.7884 295.955 25.5801C296.372 25.3717 296.769 25.0885 297.147 24.7305C297.524 24.3724 297.879 23.9525 298.211 23.4707C298.55 22.9824 298.862 22.4616 299.149 21.9082C299.435 21.3548 299.692 20.7786 299.92 20.1797C300.155 19.5742 300.35 18.9785 300.506 18.3926C300.669 17.8001 300.793 17.2305 300.877 16.6836C300.962 16.1302 301.004 15.6224 301.004 15.1602C301.004 14.8086 300.968 14.4733 300.897 14.1543C300.832 13.8288 300.715 13.5423 300.545 13.2949C300.383 13.0475 300.161 12.8522 299.881 12.709C299.601 12.5592 299.25 12.4844 298.827 12.4844C298.377 12.4844 297.948 12.5885 297.538 12.7969C297.127 12.9987 296.737 13.2786 296.366 13.6367C295.995 13.9948 295.646 14.418 295.321 14.9062C294.995 15.388 294.696 15.9089 294.422 16.4688C294.155 17.0286 293.914 17.6113 293.7 18.2168C293.485 18.8223 293.302 19.4277 293.153 20.0332C293.01 20.6387 292.899 21.2279 292.821 21.8008C292.743 22.3737 292.704 22.9043 292.704 23.3926C292.704 23.7441 292.736 24.0729 292.801 24.3789C292.866 24.6784 292.974 24.9421 293.123 25.1699C293.28 25.3913 293.485 25.5671 293.739 25.6973C293.993 25.8275 294.308 25.8926 294.686 25.8926ZM303.435 23.1777L314.363 12.0938H315.652L311.619 23.1777H313.904L313.757 23.5684H311.482L309.939 27.8164H308.367L309.9 23.5684H303.582L303.435 23.1777ZM310.037 23.1777L313.504 13.5977L303.963 23.1777H310.037Z" fill="black"/>
</svg>
