<svg width="334" height="38" viewBox="0 0 334 38" fill="none" xmlns="http://www.w3.org/2000/svg">
<path d="M8.62734 22.377C8.62734 21.6478 8.70547 20.8893 8.86172 20.1016C9.01797 19.3073 9.24258 18.5293 9.53555 17.7676C9.83503 17.0059 10.1964 16.2832 10.6195 15.5996C11.0427 14.9095 11.518 14.3073 12.0453 13.793C12.5727 13.2721 13.1488 12.8587 13.7738 12.5527C14.3988 12.2467 15.0629 12.0938 15.766 12.0938C16.391 12.0938 16.9118 12.1979 17.3285 12.4062C17.7452 12.6146 18.0772 12.8945 18.3246 13.2461C18.5785 13.5911 18.7576 13.9915 18.8617 14.4473C18.9659 14.8965 19.018 15.362 19.018 15.8438C19.018 16.5339 18.9366 17.276 18.7738 18.0703C18.6111 18.8581 18.3767 19.6426 18.0707 20.4238C17.7647 21.2051 17.3969 21.9538 16.9672 22.6699C16.5375 23.3861 16.0557 24.0208 15.5219 24.5742C14.9945 25.1211 14.4184 25.5605 13.7934 25.8926C13.1684 26.2181 12.5141 26.3809 11.8305 26.3809C11.2185 26.3809 10.7074 26.2702 10.2973 26.0488C9.88711 25.8275 9.55833 25.5345 9.31094 25.1699C9.06354 24.7988 8.88776 24.3724 8.78359 23.8906C8.67943 23.4089 8.62734 22.9043 8.62734 22.377ZM11.977 25.8926C12.4132 25.8926 12.8363 25.7884 13.2465 25.5801C13.6632 25.3717 14.0603 25.0885 14.4379 24.7305C14.8155 24.3724 15.1703 23.9525 15.5023 23.4707C15.8409 22.9824 16.1534 22.4616 16.4398 21.9082C16.7263 21.3548 16.9835 20.7786 17.2113 20.1797C17.4457 19.5742 17.641 18.9785 17.7973 18.3926C17.96 17.8001 18.0837 17.2305 18.1684 16.6836C18.253 16.1302 18.2953 15.6224 18.2953 15.1602C18.2953 14.8086 18.2595 14.4733 18.1879 14.1543C18.1228 13.8288 18.0056 13.5423 17.8363 13.2949C17.6736 13.0475 17.4522 12.8522 17.1723 12.709C16.8923 12.5592 16.5408 12.4844 16.1176 12.4844C15.6684 12.4844 15.2387 12.5885 14.8285 12.7969C14.4184 12.9987 14.0277 13.2786 13.6566 13.6367C13.2855 13.9948 12.9372 14.418 12.6117 14.9062C12.2862 15.388 11.9867 15.9089 11.7133 16.4688C11.4464 17.0286 11.2055 17.6113 10.9906 18.2168C10.7758 18.8223 10.5935 19.4277 10.4438 20.0332C10.3005 20.6387 10.1898 21.2279 10.1117 21.8008C10.0336 22.3737 9.99453 22.9043 9.99453 23.3926C9.99453 23.7441 10.0271 24.0729 10.0922 24.3789C10.1573 24.6784 10.2647 24.9421 10.4145 25.1699C10.5707 25.3913 10.7758 25.5671 11.0297 25.6973C11.2836 25.8275 11.5993 25.8926 11.977 25.8926ZM23.4801 26L27.6598 14.1738C27.2105 14.6816 26.7418 15.1146 26.2535 15.4727C25.7652 15.8242 25.277 16.1139 24.7887 16.3418C24.3069 16.5697 23.8382 16.7357 23.3824 16.8398C22.9267 16.944 22.5068 16.9961 22.1227 16.9961V16.6738C22.5914 16.6738 23.1122 16.5859 23.6852 16.4102C24.2581 16.2279 24.8408 15.9512 25.4332 15.5801C26.0257 15.209 26.6051 14.737 27.1715 14.1641C27.7444 13.5846 28.2587 12.8945 28.7145 12.0938H30.0035L24.984 26H23.4801Z" fill="black"/>
<line x1="46.25" y1="18.75" x2="126.25" y2="18.75" stroke="black" stroke-width="0.5"/>
<path d="M145.68 24.5654C145.68 23.4717 145.797 22.334 146.032 21.1523C146.266 19.9609 146.603 18.7939 147.043 17.6514C147.492 16.5088 148.034 15.4248 148.669 14.3994C149.303 13.3643 150.016 12.4609 150.807 11.6895C151.598 10.9082 152.462 10.2881 153.4 9.8291C154.337 9.37012 155.334 9.14062 156.388 9.14062C157.326 9.14062 158.107 9.29688 158.732 9.60938C159.357 9.92187 159.855 10.3418 160.226 10.8691C160.607 11.3867 160.876 11.9873 161.032 12.6709C161.188 13.3447 161.266 14.043 161.266 14.7656C161.266 15.8008 161.144 16.9141 160.9 18.1055C160.656 19.2871 160.304 20.4639 159.845 21.6357C159.386 22.8076 158.835 23.9307 158.19 25.0049C157.546 26.0791 156.823 27.0312 156.022 27.8613C155.231 28.6816 154.367 29.3408 153.429 29.8389C152.492 30.3271 151.51 30.5713 150.485 30.5713C149.567 30.5713 148.8 30.4053 148.185 30.0732C147.57 29.7412 147.077 29.3018 146.706 28.7549C146.335 28.1982 146.071 27.5586 145.915 26.8359C145.758 26.1133 145.68 25.3564 145.68 24.5654ZM150.705 29.8389C151.359 29.8389 151.994 29.6826 152.609 29.3701C153.234 29.0576 153.83 28.6328 154.396 28.0957C154.962 27.5586 155.495 26.9287 155.993 26.2061C156.501 25.4736 156.969 24.6924 157.399 23.8623C157.829 23.0322 158.214 22.168 158.556 21.2695C158.908 20.3613 159.201 19.4678 159.435 18.5889C159.679 17.7002 159.865 16.8457 159.992 16.0254C160.119 15.1953 160.182 14.4336 160.182 13.7402C160.182 13.2129 160.129 12.71 160.021 12.2314C159.923 11.7432 159.748 11.3135 159.494 10.9424C159.25 10.5713 158.918 10.2783 158.498 10.0635C158.078 9.83887 157.55 9.72656 156.916 9.72656C156.242 9.72656 155.597 9.88281 154.982 10.1953C154.367 10.498 153.781 10.918 153.224 11.4551C152.668 11.9922 152.145 12.627 151.657 13.3594C151.169 14.082 150.719 14.8633 150.309 15.7031C149.909 16.543 149.547 17.417 149.225 18.3252C148.903 19.2334 148.629 20.1416 148.405 21.0498C148.19 21.958 148.024 22.8418 147.907 23.7012C147.79 24.5605 147.731 25.3564 147.731 26.0889C147.731 26.6162 147.78 27.1094 147.878 27.5684C147.975 28.0176 148.136 28.4131 148.361 28.7549C148.595 29.0869 148.903 29.3506 149.284 29.5459C149.665 29.7412 150.138 29.8389 150.705 29.8389ZM177.188 30.0146H163.814L164.605 27.8174C164.79 27.2998 165.108 26.7773 165.557 26.25C166.016 25.7227 166.558 25.1855 167.183 24.6387C167.808 24.0918 168.487 23.5352 169.219 22.9688C169.952 22.4023 170.684 21.8213 171.416 21.2256C172.149 20.6299 172.857 20.0195 173.54 19.3945C174.234 18.7695 174.844 18.1299 175.371 17.4756C175.899 16.8115 176.319 16.1328 176.631 15.4395C176.954 14.7363 177.115 14.0088 177.115 13.2568C177.115 12.8174 177.046 12.3828 176.91 11.9531C176.783 11.5137 176.563 11.1279 176.25 10.7959C175.948 10.4541 175.542 10.1807 175.035 9.97559C174.527 9.76074 173.897 9.65332 173.145 9.65332C172.207 9.65332 171.363 9.81934 170.611 10.1514C169.869 10.4834 169.229 10.9229 168.692 11.4697C168.155 12.0068 167.735 12.6221 167.432 13.3154C167.139 14.0088 166.973 14.7217 166.934 15.4541H166.275C166.304 14.6533 166.475 13.8721 166.788 13.1104C167.1 12.3389 167.549 11.6553 168.135 11.0596C168.731 10.4639 169.458 9.98535 170.318 9.62402C171.177 9.25293 172.173 9.06738 173.306 9.06738C174.126 9.06738 174.898 9.16992 175.621 9.375C176.353 9.58008 176.993 9.87793 177.539 10.2686C178.096 10.6592 178.531 11.1377 178.843 11.7041C179.165 12.2705 179.327 12.9199 179.327 13.6523C179.327 14.4336 179.146 15.1904 178.785 15.9229C178.433 16.6553 177.959 17.3682 177.364 18.0615C176.768 18.7451 176.084 19.4092 175.313 20.0537C174.551 20.6982 173.76 21.3184 172.94 21.9141C172.12 22.5098 171.304 23.0811 170.494 23.6279C169.693 24.165 168.955 24.6826 168.282 25.1807C167.608 25.6689 167.032 26.1377 166.553 26.5869C166.075 27.0264 165.757 27.4365 165.601 27.8174H178.111L177.188 30.0146Z" fill="black"/>
<line x1="196.75" y1="18.75" x2="276.75" y2="18.75" stroke="black" stroke-width="0.5"/>
<path d="M299.258 22.377C299.258 21.6478 299.336 20.8893 299.493 20.1016C299.649 19.3073 299.873 18.5293 300.166 17.7676C300.466 17.0059 300.827 16.2832 301.25 15.5996C301.674 14.9095 302.149 14.3073 302.676 13.793C303.204 13.2721 303.78 12.8587 304.405 12.5527C305.03 12.2467 305.694 12.0938 306.397 12.0938C307.022 12.0938 307.543 12.1979 307.959 12.4062C308.376 12.6146 308.708 12.8945 308.955 13.2461C309.209 13.5911 309.388 13.9915 309.493 14.4473C309.597 14.8965 309.649 15.362 309.649 15.8438C309.649 16.5339 309.567 17.276 309.405 18.0703C309.242 18.8581 309.008 19.6426 308.702 20.4238C308.396 21.2051 308.028 21.9538 307.598 22.6699C307.168 23.3861 306.687 24.0208 306.153 24.5742C305.625 25.1211 305.049 25.5605 304.424 25.8926C303.799 26.2181 303.145 26.3809 302.461 26.3809C301.849 26.3809 301.338 26.2702 300.928 26.0488C300.518 25.8275 300.189 25.5345 299.942 25.1699C299.694 24.7988 299.519 24.3724 299.414 23.8906C299.31 23.4089 299.258 22.9043 299.258 22.377ZM302.608 25.8926C303.044 25.8926 303.467 25.7884 303.877 25.5801C304.294 25.3717 304.691 25.0885 305.069 24.7305C305.446 24.3724 305.801 23.9525 306.133 23.4707C306.472 22.9824 306.784 22.4616 307.071 21.9082C307.357 21.3548 307.614 20.7786 307.842 20.1797C308.077 19.5742 308.272 18.9785 308.428 18.3926C308.591 17.8001 308.715 17.2305 308.799 16.6836C308.884 16.1302 308.926 15.6224 308.926 15.1602C308.926 14.8086 308.89 14.4733 308.819 14.1543C308.754 13.8288 308.636 13.5423 308.467 13.2949C308.304 13.0475 308.083 12.8522 307.803 12.709C307.523 12.5592 307.172 12.4844 306.748 12.4844C306.299 12.4844 305.87 12.5885 305.459 12.7969C305.049 12.9987 304.659 13.2786 304.288 13.6367C303.916 13.9948 303.568 14.418 303.243 14.9062C302.917 15.388 302.618 15.9089 302.344 16.4688C302.077 17.0286 301.836 17.6113 301.621 18.2168C301.407 18.8223 301.224 19.4277 301.075 20.0332C300.931 20.6387 300.821 21.2279 300.743 21.8008C300.664 22.3737 300.625 22.9043 300.625 23.3926C300.625 23.7441 300.658 24.0729 300.723 24.3789C300.788 24.6784 300.896 24.9421 301.045 25.1699C301.202 25.3913 301.407 25.5671 301.661 25.6973C301.914 25.8275 302.23 25.8926 302.608 25.8926ZM314.326 15.1895C314.326 14.6816 314.44 14.2357 314.668 13.8516C314.895 13.4609 315.195 13.1354 315.566 12.875C315.937 12.6146 316.357 12.4193 316.826 12.2891C317.295 12.1589 317.77 12.0938 318.252 12.0938C318.714 12.0938 319.163 12.1556 319.599 12.2793C320.035 12.403 320.423 12.5885 320.761 12.8359C321.1 13.0768 321.37 13.3828 321.572 13.7539C321.78 14.1185 321.884 14.5449 321.884 15.0332C321.884 15.4759 321.796 15.8958 321.621 16.293C321.451 16.6836 321.207 17.0352 320.888 17.3477C320.576 17.6536 320.195 17.9108 319.746 18.1191C319.303 18.321 318.805 18.4512 318.252 18.5098C318.74 18.6595 319.163 18.8548 319.521 19.0957C319.879 19.3366 320.172 19.6068 320.4 19.9062C320.634 20.2057 320.807 20.5312 320.918 20.8828C321.028 21.2279 321.084 21.5794 321.084 21.9375C321.084 22.4779 320.966 23.015 320.732 23.5488C320.498 24.0762 320.162 24.5514 319.726 24.9746C319.296 25.3913 318.769 25.7298 318.144 25.9902C317.519 26.2507 316.816 26.3809 316.035 26.3809C315.384 26.3809 314.821 26.2962 314.345 26.127C313.87 25.9642 313.479 25.7428 313.173 25.4629C312.867 25.1829 312.64 24.8639 312.49 24.5059C312.34 24.1478 312.265 23.7734 312.265 23.3828C312.265 23.2331 312.278 23.0638 312.304 22.875C312.33 22.6862 312.379 22.4876 312.451 22.2793C312.522 22.071 312.617 21.8561 312.734 21.6348C312.851 21.4134 313.004 21.1953 313.193 20.9805L313.427 21.2832C313.278 21.459 313.154 21.6445 313.056 21.8398C312.959 22.0286 312.88 22.2142 312.822 22.3965C312.77 22.5788 312.734 22.7546 312.714 22.9238C312.695 23.0866 312.685 23.2298 312.685 23.3535C312.685 23.7246 312.757 24.0664 312.9 24.3789C313.05 24.6849 313.255 24.9518 313.515 25.1797C313.782 25.4076 314.101 25.5866 314.472 25.7168C314.85 25.8405 315.263 25.9023 315.713 25.9023C316.331 25.9023 316.878 25.7819 317.353 25.541C317.835 25.3001 318.239 24.9876 318.564 24.6035C318.89 24.2129 319.137 23.7767 319.306 23.2949C319.476 22.8066 319.56 22.3184 319.56 21.8301C319.56 21.4525 319.508 21.0879 319.404 20.7363C319.3 20.3848 319.14 20.0658 318.925 19.7793C318.711 19.4928 318.44 19.252 318.115 19.0566C317.789 18.8548 317.405 18.7181 316.963 18.6465C316.93 18.6595 316.878 18.6758 316.806 18.6953C316.735 18.7148 316.666 18.7246 316.601 18.7246C316.412 18.7246 316.318 18.6693 316.318 18.5586C316.318 18.4544 316.412 18.4023 316.601 18.4023C316.673 18.4023 316.741 18.4121 316.806 18.4316C316.871 18.4447 316.927 18.4609 316.972 18.4805C317.578 18.4154 318.092 18.2721 318.515 18.0508C318.945 17.8229 319.296 17.5462 319.57 17.2207C319.843 16.8952 320.042 16.5371 320.166 16.1465C320.296 15.7493 320.361 15.3522 320.361 14.9551C320.361 14.5254 320.293 14.1576 320.156 13.8516C320.026 13.5456 319.85 13.2949 319.629 13.0996C319.414 12.9043 319.16 12.7611 318.867 12.6699C318.58 12.5788 318.281 12.5332 317.968 12.5332C317.584 12.5332 317.2 12.5983 316.816 12.7285C316.432 12.8522 316.087 13.0312 315.781 13.2656C315.475 13.4935 315.224 13.7734 315.029 14.1055C314.84 14.431 314.746 14.7923 314.746 15.1895H314.326Z" fill="black"/>
</svg>
