<svg width="326" height="38" viewBox="0 0 326 38" fill="none" xmlns="http://www.w3.org/2000/svg">
<path d="M8.62734 22.377C8.62734 21.6478 8.70547 20.8893 8.86172 20.1016C9.01797 19.3073 9.24258 18.5293 9.53555 17.7676C9.83503 17.0059 10.1964 16.2832 10.6195 15.5996C11.0427 14.9095 11.518 14.3073 12.0453 13.793C12.5727 13.2721 13.1488 12.8587 13.7738 12.5527C14.3988 12.2467 15.0629 12.0938 15.766 12.0938C16.391 12.0938 16.9118 12.1979 17.3285 12.4062C17.7452 12.6146 18.0772 12.8945 18.3246 13.2461C18.5785 13.5911 18.7576 13.9915 18.8617 14.4473C18.9659 14.8965 19.018 15.362 19.018 15.8438C19.018 16.5339 18.9366 17.276 18.7738 18.0703C18.6111 18.8581 18.3767 19.6426 18.0707 20.4238C17.7647 21.2051 17.3969 21.9538 16.9672 22.6699C16.5375 23.3861 16.0557 24.0208 15.5219 24.5742C14.9945 25.1211 14.4184 25.5605 13.7934 25.8926C13.1684 26.2181 12.5141 26.3809 11.8305 26.3809C11.2185 26.3809 10.7074 26.2702 10.2973 26.0488C9.88711 25.8275 9.55833 25.5345 9.31094 25.1699C9.06354 24.7988 8.88776 24.3724 8.78359 23.8906C8.67943 23.4089 8.62734 22.9043 8.62734 22.377ZM11.977 25.8926C12.4132 25.8926 12.8363 25.7884 13.2465 25.5801C13.6632 25.3717 14.0603 25.0885 14.4379 24.7305C14.8155 24.3724 15.1703 23.9525 15.5023 23.4707C15.8409 22.9824 16.1534 22.4616 16.4398 21.9082C16.7263 21.3548 16.9835 20.7786 17.2113 20.1797C17.4457 19.5742 17.641 18.9785 17.7973 18.3926C17.96 17.8001 18.0837 17.2305 18.1684 16.6836C18.253 16.1302 18.2953 15.6224 18.2953 15.1602C18.2953 14.8086 18.2595 14.4733 18.1879 14.1543C18.1228 13.8288 18.0056 13.5423 17.8363 13.2949C17.6736 13.0475 17.4522 12.8522 17.1723 12.709C16.8923 12.5592 16.5408 12.4844 16.1176 12.4844C15.6684 12.4844 15.2387 12.5885 14.8285 12.7969C14.4184 12.9987 14.0277 13.2786 13.6566 13.6367C13.2855 13.9948 12.9372 14.418 12.6117 14.9062C12.2862 15.388 11.9867 15.9089 11.7133 16.4688C11.4464 17.0286 11.2055 17.6113 10.9906 18.2168C10.7758 18.8223 10.5935 19.4277 10.4438 20.0332C10.3005 20.6387 10.1898 21.2279 10.1117 21.8008C10.0336 22.3737 9.99453 22.9043 9.99453 23.3926C9.99453 23.7441 10.0271 24.0729 10.0922 24.3789C10.1573 24.6784 10.2647 24.9421 10.4145 25.1699C10.5707 25.3913 10.7758 25.5671 11.0297 25.6973C11.2836 25.8275 11.5993 25.8926 11.977 25.8926ZM23.4801 26L27.6598 14.1738C27.2105 14.6816 26.7418 15.1146 26.2535 15.4727C25.7652 15.8242 25.277 16.1139 24.7887 16.3418C24.3069 16.5697 23.8382 16.7357 23.3824 16.8398C22.9267 16.944 22.5068 16.9961 22.1227 16.9961V16.6738C22.5914 16.6738 23.1122 16.5859 23.6852 16.4102C24.2581 16.2279 24.8408 15.9512 25.4332 15.5801C26.0257 15.209 26.6051 14.737 27.1715 14.1641C27.7444 13.5846 28.2587 12.8945 28.7145 12.0938H30.0035L24.984 26H23.4801Z" fill="black"/>
<line x1="37.5" y1="18.75" x2="83.5" y2="18.75" stroke="black" stroke-width="0.5"/>
<path d="M99.4535 22.377C99.4535 21.6478 99.5316 20.8893 99.6879 20.1016C99.8441 19.3073 100.069 18.5293 100.362 17.7676C100.661 17.0059 101.023 16.2832 101.446 15.5996C101.869 14.9095 102.344 14.3073 102.871 13.793C103.399 13.2721 103.975 12.8587 104.6 12.5527C105.225 12.2467 105.889 12.0938 106.592 12.0938C107.217 12.0938 107.738 12.1979 108.155 12.4062C108.571 12.6146 108.903 12.8945 109.151 13.2461C109.405 13.5911 109.584 13.9915 109.688 14.4473C109.792 14.8965 109.844 15.362 109.844 15.8438C109.844 16.5339 109.763 17.276 109.6 18.0703C109.437 18.8581 109.203 19.6426 108.897 20.4238C108.591 21.2051 108.223 21.9538 107.793 22.6699C107.364 23.3861 106.882 24.0208 106.348 24.5742C105.821 25.1211 105.245 25.5605 104.62 25.8926C103.995 26.2181 103.34 26.3809 102.657 26.3809C102.045 26.3809 101.534 26.2702 101.123 26.0488C100.713 25.8275 100.385 25.5345 100.137 25.1699C99.8897 24.7988 99.7139 24.3724 99.6098 23.8906C99.5056 23.4089 99.4535 22.9043 99.4535 22.377ZM102.803 25.8926C103.239 25.8926 103.663 25.7884 104.073 25.5801C104.489 25.3717 104.886 25.0885 105.264 24.7305C105.642 24.3724 105.996 23.9525 106.329 23.4707C106.667 22.9824 106.98 22.4616 107.266 21.9082C107.552 21.3548 107.81 20.7786 108.038 20.1797C108.272 19.5742 108.467 18.9785 108.623 18.3926C108.786 17.8001 108.91 17.2305 108.995 16.6836C109.079 16.1302 109.121 15.6224 109.121 15.1602C109.121 14.8086 109.086 14.4733 109.014 14.1543C108.949 13.8288 108.832 13.5423 108.663 13.2949C108.5 13.0475 108.278 12.8522 107.998 12.709C107.718 12.5592 107.367 12.4844 106.944 12.4844C106.495 12.4844 106.065 12.5885 105.655 12.7969C105.245 12.9987 104.854 13.2786 104.483 13.6367C104.112 13.9948 103.763 14.418 103.438 14.9062C103.112 15.388 102.813 15.9089 102.539 16.4688C102.273 17.0286 102.032 17.6113 101.817 18.2168C101.602 18.8223 101.42 19.4277 101.27 20.0332C101.127 20.6387 101.016 21.2279 100.938 21.8008C100.86 22.3737 100.821 22.9043 100.821 23.3926C100.821 23.7441 100.853 24.0729 100.918 24.3789C100.983 24.6784 101.091 24.9421 101.241 25.1699C101.397 25.3913 101.602 25.5671 101.856 25.6973C102.11 25.8275 102.426 25.8926 102.803 25.8926ZM120.459 26.0098H111.543L112.07 24.5449C112.194 24.1999 112.405 23.8516 112.705 23.5C113.011 23.1484 113.372 22.7904 113.789 22.4258C114.205 22.0612 114.658 21.6901 115.146 21.3125C115.634 20.9349 116.123 20.5475 116.611 20.1504C117.099 19.7533 117.571 19.3464 118.027 18.9297C118.489 18.513 118.896 18.0866 119.248 17.6504C119.599 17.2077 119.879 16.7552 120.088 16.293C120.302 15.8242 120.41 15.3392 120.41 14.8379C120.41 14.5449 120.364 14.2552 120.273 13.9688C120.188 13.6758 120.042 13.4186 119.834 13.1973C119.632 12.9694 119.362 12.7871 119.023 12.6504C118.685 12.5072 118.265 12.4355 117.763 12.4355C117.138 12.4355 116.575 12.5462 116.074 12.7676C115.579 12.9889 115.153 13.2819 114.795 13.6465C114.436 14.0046 114.157 14.4147 113.955 14.877C113.759 15.3392 113.649 15.8145 113.623 16.3027H113.183C113.203 15.7689 113.317 15.248 113.525 14.7402C113.733 14.2259 114.033 13.7702 114.423 13.373C114.821 12.9759 115.306 12.6569 115.879 12.416C116.451 12.1686 117.115 12.0449 117.871 12.0449C118.418 12.0449 118.932 12.1133 119.414 12.25C119.902 12.3867 120.328 12.5853 120.693 12.8457C121.064 13.1061 121.354 13.4251 121.562 13.8027C121.777 14.1803 121.884 14.6133 121.884 15.1016C121.884 15.6224 121.764 16.127 121.523 16.6152C121.289 17.1035 120.973 17.5788 120.576 18.041C120.179 18.4967 119.723 18.9395 119.209 19.3691C118.701 19.7988 118.173 20.2122 117.627 20.6094C117.08 21.0065 116.536 21.3874 115.996 21.752C115.462 22.11 114.97 22.4551 114.521 22.7871C114.072 23.1126 113.688 23.4251 113.369 23.7246C113.05 24.0176 112.838 24.291 112.734 24.5449H121.074L120.459 26.0098Z" fill="black"/>
<line x1="136.5" y1="18.75" x2="182.5" y2="18.75" stroke="black" stroke-width="0.5"/>
<path d="M190.887 24.5654C190.887 23.4717 191.004 22.334 191.239 21.1523C191.473 19.9609 191.81 18.7939 192.25 17.6514C192.699 16.5088 193.241 15.4248 193.876 14.3994C194.51 13.3643 195.223 12.4609 196.014 11.6895C196.805 10.9082 197.67 10.2881 198.607 9.8291C199.545 9.37012 200.541 9.14062 201.595 9.14062C202.533 9.14062 203.314 9.29688 203.939 9.60938C204.564 9.92187 205.062 10.3418 205.433 10.8691C205.814 11.3867 206.083 11.9873 206.239 12.6709C206.395 13.3447 206.473 14.043 206.473 14.7656C206.473 15.8008 206.351 16.9141 206.107 18.1055C205.863 19.2871 205.511 20.4639 205.052 21.6357C204.593 22.8076 204.042 23.9307 203.397 25.0049C202.753 26.0791 202.03 27.0312 201.229 27.8613C200.438 28.6816 199.574 29.3408 198.636 29.8389C197.699 30.3271 196.717 30.5713 195.692 30.5713C194.774 30.5713 194.007 30.4053 193.392 30.0732C192.777 29.7412 192.284 29.3018 191.913 28.7549C191.542 28.1982 191.278 27.5586 191.122 26.8359C190.965 26.1133 190.887 25.3564 190.887 24.5654ZM195.912 29.8389C196.566 29.8389 197.201 29.6826 197.816 29.3701C198.441 29.0576 199.037 28.6328 199.603 28.0957C200.17 27.5586 200.702 26.9287 201.2 26.2061C201.708 25.4736 202.176 24.6924 202.606 23.8623C203.036 23.0322 203.421 22.168 203.763 21.2695C204.115 20.3613 204.408 19.4678 204.642 18.5889C204.886 17.7002 205.072 16.8457 205.199 16.0254C205.326 15.1953 205.389 14.4336 205.389 13.7402C205.389 13.2129 205.336 12.71 205.228 12.2314C205.13 11.7432 204.955 11.3135 204.701 10.9424C204.457 10.5713 204.125 10.2783 203.705 10.0635C203.285 9.83887 202.757 9.72656 202.123 9.72656C201.449 9.72656 200.804 9.88281 200.189 10.1953C199.574 10.498 198.988 10.918 198.431 11.4551C197.875 11.9922 197.352 12.627 196.864 13.3594C196.376 14.082 195.926 14.8633 195.516 15.7031C195.116 16.543 194.754 17.417 194.432 18.3252C194.11 19.2334 193.837 20.1416 193.612 21.0498C193.397 21.958 193.231 22.8418 193.114 23.7012C192.997 24.5605 192.938 25.3564 192.938 26.0889C192.938 26.6162 192.987 27.1094 193.085 27.5684C193.182 28.0176 193.343 28.4131 193.568 28.7549C193.802 29.0869 194.11 29.3506 194.491 29.5459C194.872 29.7412 195.345 29.8389 195.912 29.8389ZM213.489 13.7842C213.489 13.0225 213.66 12.3535 214.001 11.7773C214.343 11.1914 214.792 10.7031 215.349 10.3125C215.906 9.92187 216.536 9.62891 217.239 9.43359C217.942 9.23828 218.655 9.14062 219.377 9.14062C220.071 9.14062 220.745 9.2334 221.399 9.41895C222.053 9.60449 222.634 9.88281 223.142 10.2539C223.65 10.6152 224.055 11.0742 224.358 11.6309C224.67 12.1777 224.827 12.8174 224.827 13.5498C224.827 14.2139 224.695 14.8437 224.431 15.4395C224.177 16.0254 223.811 16.5527 223.332 17.0215C222.864 17.4805 222.292 17.8662 221.619 18.1787C220.954 18.4814 220.207 18.6768 219.377 18.7646C220.11 18.9893 220.745 19.2822 221.282 19.6436C221.819 20.0049 222.258 20.4102 222.6 20.8594C222.952 21.3086 223.21 21.7969 223.376 22.3242C223.542 22.8418 223.625 23.3691 223.625 23.9062C223.625 24.7168 223.45 25.5225 223.098 26.3232C222.746 27.1143 222.244 27.8271 221.589 28.4619C220.945 29.0869 220.154 29.5947 219.216 29.9854C218.279 30.376 217.224 30.5713 216.052 30.5713C215.076 30.5713 214.231 30.4443 213.518 30.1904C212.805 29.9463 212.219 29.6143 211.76 29.1943C211.301 28.7744 210.959 28.2959 210.735 27.7588C210.51 27.2217 210.398 26.6602 210.398 26.0742C210.398 25.8496 210.417 25.5957 210.456 25.3125C210.496 25.0293 210.569 24.7314 210.676 24.4189C210.784 24.1064 210.925 23.7842 211.101 23.4521C211.277 23.1201 211.506 22.793 211.789 22.4707L212.141 22.9248C211.916 23.1885 211.731 23.4668 211.584 23.7598C211.438 24.043 211.321 24.3213 211.233 24.5947C211.155 24.8682 211.101 25.1318 211.072 25.3857C211.042 25.6299 211.028 25.8447 211.028 26.0303C211.028 26.5869 211.135 27.0996 211.35 27.5684C211.575 28.0273 211.882 28.4277 212.273 28.7695C212.673 29.1113 213.152 29.3799 213.708 29.5752C214.275 29.7607 214.895 29.8535 215.569 29.8535C216.496 29.8535 217.317 29.6729 218.03 29.3115C218.752 28.9502 219.358 28.4814 219.846 27.9053C220.334 27.3193 220.705 26.665 220.959 25.9424C221.213 25.21 221.34 24.4775 221.34 23.7451C221.34 23.1787 221.262 22.6318 221.106 22.1045C220.95 21.5771 220.71 21.0986 220.388 20.6689C220.066 20.2393 219.661 19.8779 219.172 19.585C218.684 19.2822 218.108 19.0771 217.444 18.9697C217.395 18.9893 217.317 19.0137 217.209 19.043C217.102 19.0723 216.999 19.0869 216.902 19.0869C216.619 19.0869 216.477 19.0039 216.477 18.8379C216.477 18.6816 216.619 18.6035 216.902 18.6035C217.009 18.6035 217.112 18.6182 217.209 18.6475C217.307 18.667 217.39 18.6914 217.458 18.7207C218.367 18.623 219.138 18.4082 219.773 18.0762C220.417 17.7344 220.945 17.3193 221.355 16.8311C221.765 16.3428 222.063 15.8057 222.248 15.2197C222.444 14.624 222.541 14.0283 222.541 13.4326C222.541 12.7881 222.439 12.2363 222.234 11.7773C222.038 11.3184 221.775 10.9424 221.443 10.6494C221.121 10.3564 220.74 10.1416 220.3 10.0049C219.871 9.86816 219.421 9.7998 218.953 9.7998C218.376 9.7998 217.8 9.89746 217.224 10.0928C216.648 10.2783 216.13 10.5469 215.671 10.8984C215.212 11.2402 214.836 11.6602 214.543 12.1582C214.26 12.6465 214.119 13.1885 214.119 13.7842H213.489Z" fill="black"/>
<line x1="231.5" y1="18.75" x2="277.5" y2="18.75" stroke="black" stroke-width="0.5"/>
<path d="M291.336 22.377C291.336 21.6478 291.414 20.8893 291.571 20.1016C291.727 19.3073 291.952 18.5293 292.245 17.7676C292.544 17.0059 292.905 16.2832 293.329 15.5996C293.752 14.9095 294.227 14.3073 294.754 13.793C295.282 13.2721 295.858 12.8587 296.483 12.5527C297.108 12.2467 297.772 12.0938 298.475 12.0938C299.1 12.0938 299.621 12.1979 300.038 12.4062C300.454 12.6146 300.786 12.8945 301.034 13.2461C301.288 13.5911 301.467 13.9915 301.571 14.4473C301.675 14.8965 301.727 15.362 301.727 15.8438C301.727 16.5339 301.646 17.276 301.483 18.0703C301.32 18.8581 301.086 19.6426 300.78 20.4238C300.474 21.2051 300.106 21.9538 299.676 22.6699C299.246 23.3861 298.765 24.0208 298.231 24.5742C297.704 25.1211 297.127 25.5605 296.502 25.8926C295.877 26.2181 295.223 26.3809 294.539 26.3809C293.927 26.3809 293.416 26.2702 293.006 26.0488C292.596 25.8275 292.267 25.5345 292.02 25.1699C291.773 24.7988 291.597 24.3724 291.493 23.8906C291.388 23.4089 291.336 22.9043 291.336 22.377ZM294.686 25.8926C295.122 25.8926 295.545 25.7884 295.955 25.5801C296.372 25.3717 296.769 25.0885 297.147 24.7305C297.524 24.3724 297.879 23.9525 298.211 23.4707C298.55 22.9824 298.862 22.4616 299.149 21.9082C299.435 21.3548 299.692 20.7786 299.92 20.1797C300.155 19.5742 300.35 18.9785 300.506 18.3926C300.669 17.8001 300.793 17.2305 300.877 16.6836C300.962 16.1302 301.004 15.6224 301.004 15.1602C301.004 14.8086 300.968 14.4733 300.897 14.1543C300.832 13.8288 300.715 13.5423 300.545 13.2949C300.383 13.0475 300.161 12.8522 299.881 12.709C299.601 12.5592 299.25 12.4844 298.827 12.4844C298.377 12.4844 297.948 12.5885 297.538 12.7969C297.127 12.9987 296.737 13.2786 296.366 13.6367C295.995 13.9948 295.646 14.418 295.321 14.9062C294.995 15.388 294.696 15.9089 294.422 16.4688C294.155 17.0286 293.914 17.6113 293.7 18.2168C293.485 18.8223 293.302 19.4277 293.153 20.0332C293.01 20.6387 292.899 21.2279 292.821 21.8008C292.743 22.3737 292.704 22.9043 292.704 23.3926C292.704 23.7441 292.736 24.0729 292.801 24.3789C292.866 24.6784 292.974 24.9421 293.123 25.1699C293.28 25.3913 293.485 25.5671 293.739 25.6973C293.993 25.8275 294.308 25.8926 294.686 25.8926ZM303.435 23.1777L314.363 12.0938H315.652L311.619 23.1777H313.904L313.757 23.5684H311.482L309.939 27.8164H308.367L309.9 23.5684H303.582L303.435 23.1777ZM310.037 23.1777L313.504 13.5977L303.963 23.1777H310.037Z" fill="black"/>
</svg>
