<svg width="334" height="38" viewBox="0 0 334 38" fill="none" xmlns="http://www.w3.org/2000/svg">
<path d="M8.62734 22.377C8.62734 21.6478 8.70547 20.8893 8.86172 20.1016C9.01797 19.3073 9.24258 18.5293 9.53555 17.7676C9.83503 17.0059 10.1964 16.2832 10.6195 15.5996C11.0427 14.9095 11.518 14.3073 12.0453 13.793C12.5727 13.2721 13.1488 12.8587 13.7738 12.5527C14.3988 12.2467 15.0629 12.0938 15.766 12.0938C16.391 12.0938 16.9118 12.1979 17.3285 12.4062C17.7452 12.6146 18.0772 12.8945 18.3246 13.2461C18.5785 13.5911 18.7576 13.9915 18.8617 14.4473C18.9659 14.8965 19.018 15.362 19.018 15.8438C19.018 16.5339 18.9366 17.276 18.7738 18.0703C18.6111 18.8581 18.3767 19.6426 18.0707 20.4238C17.7647 21.2051 17.3969 21.9538 16.9672 22.6699C16.5375 23.3861 16.0557 24.0208 15.5219 24.5742C14.9945 25.1211 14.4184 25.5605 13.7934 25.8926C13.1684 26.2181 12.5141 26.3809 11.8305 26.3809C11.2185 26.3809 10.7074 26.2702 10.2973 26.0488C9.88711 25.8275 9.55833 25.5345 9.31094 25.1699C9.06354 24.7988 8.88776 24.3724 8.78359 23.8906C8.67943 23.4089 8.62734 22.9043 8.62734 22.377ZM11.977 25.8926C12.4132 25.8926 12.8363 25.7884 13.2465 25.5801C13.6632 25.3717 14.0603 25.0885 14.4379 24.7305C14.8155 24.3724 15.1703 23.9525 15.5023 23.4707C15.8409 22.9824 16.1534 22.4616 16.4398 21.9082C16.7263 21.3548 16.9835 20.7786 17.2113 20.1797C17.4457 19.5742 17.641 18.9785 17.7973 18.3926C17.96 17.8001 18.0837 17.2305 18.1684 16.6836C18.253 16.1302 18.2953 15.6224 18.2953 15.1602C18.2953 14.8086 18.2595 14.4733 18.1879 14.1543C18.1228 13.8288 18.0056 13.5423 17.8363 13.2949C17.6736 13.0475 17.4522 12.8522 17.1723 12.709C16.8923 12.5592 16.5408 12.4844 16.1176 12.4844C15.6684 12.4844 15.2387 12.5885 14.8285 12.7969C14.4184 12.9987 14.0277 13.2786 13.6566 13.6367C13.2855 13.9948 12.9372 14.418 12.6117 14.9062C12.2862 15.388 11.9867 15.9089 11.7133 16.4688C11.4464 17.0286 11.2055 17.6113 10.9906 18.2168C10.7758 18.8223 10.5935 19.4277 10.4438 20.0332C10.3005 20.6387 10.1898 21.2279 10.1117 21.8008C10.0336 22.3737 9.99453 22.9043 9.99453 23.3926C9.99453 23.7441 10.0271 24.0729 10.0922 24.3789C10.1573 24.6784 10.2647 24.9421 10.4145 25.1699C10.5707 25.3913 10.7758 25.5671 11.0297 25.6973C11.2836 25.8275 11.5993 25.8926 11.977 25.8926ZM23.4801 26L27.6598 14.1738C27.2105 14.6816 26.7418 15.1146 26.2535 15.4727C25.7652 15.8242 25.277 16.1139 24.7887 16.3418C24.3069 16.5697 23.8382 16.7357 23.3824 16.8398C22.9267 16.944 22.5068 16.9961 22.1227 16.9961V16.6738C22.5914 16.6738 23.1122 16.5859 23.6852 16.4102C24.2581 16.2279 24.8408 15.9512 25.4332 15.5801C26.0257 15.209 26.6051 14.737 27.1715 14.1641C27.7444 13.5846 28.2587 12.8945 28.7145 12.0938H30.0035L24.984 26H23.4801Z" fill="black"/>
<line x1="46.25" y1="18.75" x2="126.25" y2="18.75" stroke="black" stroke-width="0.5"/>
<path d="M150.954 22.377C150.954 21.6478 151.032 20.8893 151.188 20.1016C151.344 19.3073 151.569 18.5293 151.862 17.7676C152.161 17.0059 152.523 16.2832 152.946 15.5996C153.369 14.9095 153.844 14.3073 154.371 13.793C154.899 13.2721 155.475 12.8587 156.1 12.5527C156.725 12.2467 157.389 12.0938 158.092 12.0938C158.717 12.0938 159.238 12.1979 159.655 12.4062C160.071 12.6146 160.403 12.8945 160.651 13.2461C160.905 13.5911 161.084 13.9915 161.188 14.4473C161.292 14.8965 161.344 15.362 161.344 15.8438C161.344 16.5339 161.263 17.276 161.1 18.0703C160.937 18.8581 160.703 19.6426 160.397 20.4238C160.091 21.2051 159.723 21.9538 159.293 22.6699C158.864 23.3861 158.382 24.0208 157.848 24.5742C157.321 25.1211 156.745 25.5605 156.12 25.8926C155.495 26.2181 154.84 26.3809 154.157 26.3809C153.545 26.3809 153.034 26.2702 152.623 26.0488C152.213 25.8275 151.885 25.5345 151.637 25.1699C151.39 24.7988 151.214 24.3724 151.11 23.8906C151.006 23.4089 150.954 22.9043 150.954 22.377ZM154.303 25.8926C154.739 25.8926 155.163 25.7884 155.573 25.5801C155.989 25.3717 156.386 25.0885 156.764 24.7305C157.142 24.3724 157.496 23.9525 157.829 23.4707C158.167 22.9824 158.48 22.4616 158.766 21.9082C159.052 21.3548 159.31 20.7786 159.538 20.1797C159.772 19.5742 159.967 18.9785 160.123 18.3926C160.286 17.8001 160.41 17.2305 160.495 16.6836C160.579 16.1302 160.621 15.6224 160.621 15.1602C160.621 14.8086 160.586 14.4733 160.514 14.1543C160.449 13.8288 160.332 13.5423 160.163 13.2949C160 13.0475 159.778 12.8522 159.498 12.709C159.218 12.5592 158.867 12.4844 158.444 12.4844C157.995 12.4844 157.565 12.5885 157.155 12.7969C156.745 12.9987 156.354 13.2786 155.983 13.6367C155.612 13.9948 155.263 14.418 154.938 14.9062C154.612 15.388 154.313 15.9089 154.039 16.4688C153.773 17.0286 153.532 17.6113 153.317 18.2168C153.102 18.8223 152.92 19.4277 152.77 20.0332C152.627 20.6387 152.516 21.2279 152.438 21.8008C152.36 22.3737 152.321 22.9043 152.321 23.3926C152.321 23.7441 152.353 24.0729 152.418 24.3789C152.483 24.6784 152.591 24.9421 152.741 25.1699C152.897 25.3913 153.102 25.5671 153.356 25.6973C153.61 25.8275 153.926 25.8926 154.303 25.8926ZM171.959 26.0098H163.043L163.57 24.5449C163.694 24.1999 163.905 23.8516 164.205 23.5C164.511 23.1484 164.872 22.7904 165.289 22.4258C165.705 22.0612 166.158 21.6901 166.646 21.3125C167.134 20.9349 167.623 20.5475 168.111 20.1504C168.599 19.7533 169.071 19.3464 169.527 18.9297C169.989 18.513 170.396 18.0866 170.748 17.6504C171.099 17.2077 171.379 16.7552 171.588 16.293C171.802 15.8242 171.91 15.3392 171.91 14.8379C171.91 14.5449 171.864 14.2552 171.773 13.9688C171.688 13.6758 171.542 13.4186 171.334 13.1973C171.132 12.9694 170.862 12.7871 170.523 12.6504C170.185 12.5072 169.765 12.4355 169.263 12.4355C168.638 12.4355 168.075 12.5462 167.574 12.7676C167.079 12.9889 166.653 13.2819 166.295 13.6465C165.936 14.0046 165.657 14.4147 165.455 14.877C165.259 15.3392 165.149 15.8145 165.123 16.3027H164.683C164.703 15.7689 164.817 15.248 165.025 14.7402C165.233 14.2259 165.533 13.7702 165.923 13.373C166.321 12.9759 166.806 12.6569 167.379 12.416C167.951 12.1686 168.615 12.0449 169.371 12.0449C169.918 12.0449 170.432 12.1133 170.914 12.25C171.402 12.3867 171.828 12.5853 172.193 12.8457C172.564 13.1061 172.854 13.4251 173.062 13.8027C173.277 14.1803 173.384 14.6133 173.384 15.1016C173.384 15.6224 173.264 16.127 173.023 16.6152C172.789 17.1035 172.473 17.5788 172.076 18.041C171.679 18.4967 171.223 18.9395 170.709 19.3691C170.201 19.7988 169.673 20.2122 169.127 20.6094C168.58 21.0065 168.036 21.3874 167.496 21.752C166.962 22.11 166.47 22.4551 166.021 22.7871C165.572 23.1126 165.188 23.4251 164.869 23.7246C164.55 24.0176 164.338 24.291 164.234 24.5449H172.574L171.959 26.0098Z" fill="black"/>
<line x1="196.75" y1="18.75" x2="276.75" y2="18.75" stroke="black" stroke-width="0.5"/>
<path d="M293.887 24.5654C293.887 23.4717 294.004 22.334 294.239 21.1523C294.473 19.9609 294.81 18.7939 295.25 17.6514C295.699 16.5088 296.241 15.4248 296.876 14.3994C297.51 13.3643 298.223 12.4609 299.014 11.6895C299.805 10.9082 300.67 10.2881 301.607 9.8291C302.545 9.37012 303.541 9.14062 304.595 9.14062C305.533 9.14062 306.314 9.29688 306.939 9.60938C307.564 9.92187 308.062 10.3418 308.433 10.8691C308.814 11.3867 309.083 11.9873 309.239 12.6709C309.395 13.3447 309.473 14.043 309.473 14.7656C309.473 15.8008 309.351 16.9141 309.107 18.1055C308.863 19.2871 308.511 20.4639 308.052 21.6357C307.593 22.8076 307.042 23.9307 306.397 25.0049C305.753 26.0791 305.03 27.0312 304.229 27.8613C303.438 28.6816 302.574 29.3408 301.636 29.8389C300.699 30.3271 299.717 30.5713 298.692 30.5713C297.774 30.5713 297.007 30.4053 296.392 30.0732C295.777 29.7412 295.284 29.3018 294.913 28.7549C294.542 28.1982 294.278 27.5586 294.122 26.8359C293.965 26.1133 293.887 25.3564 293.887 24.5654ZM298.912 29.8389C299.566 29.8389 300.201 29.6826 300.816 29.3701C301.441 29.0576 302.037 28.6328 302.603 28.0957C303.17 27.5586 303.702 26.9287 304.2 26.2061C304.708 25.4736 305.176 24.6924 305.606 23.8623C306.036 23.0322 306.421 22.168 306.763 21.2695C307.115 20.3613 307.408 19.4678 307.642 18.5889C307.886 17.7002 308.072 16.8457 308.199 16.0254C308.326 15.1953 308.389 14.4336 308.389 13.7402C308.389 13.2129 308.336 12.71 308.228 12.2314C308.13 11.7432 307.955 11.3135 307.701 10.9424C307.457 10.5713 307.125 10.2783 306.705 10.0635C306.285 9.83887 305.757 9.72656 305.123 9.72656C304.449 9.72656 303.804 9.88281 303.189 10.1953C302.574 10.498 301.988 10.918 301.431 11.4551C300.875 11.9922 300.352 12.627 299.864 13.3594C299.376 14.082 298.926 14.8633 298.516 15.7031C298.116 16.543 297.754 17.417 297.432 18.3252C297.11 19.2334 296.837 20.1416 296.612 21.0498C296.397 21.958 296.231 22.8418 296.114 23.7012C295.997 24.5605 295.938 25.3564 295.938 26.0889C295.938 26.6162 295.987 27.1094 296.085 27.5684C296.182 28.0176 296.343 28.4131 296.568 28.7549C296.802 29.0869 297.11 29.3506 297.491 29.5459C297.872 29.7412 298.345 29.8389 298.912 29.8389ZM316.489 13.7842C316.489 13.0225 316.66 12.3535 317.001 11.7773C317.343 11.1914 317.792 10.7031 318.349 10.3125C318.906 9.92187 319.536 9.62891 320.239 9.43359C320.942 9.23828 321.655 9.14062 322.377 9.14062C323.071 9.14062 323.745 9.2334 324.399 9.41895C325.053 9.60449 325.634 9.88281 326.142 10.2539C326.65 10.6152 327.055 11.0742 327.358 11.6309C327.67 12.1777 327.827 12.8174 327.827 13.5498C327.827 14.2139 327.695 14.8437 327.431 15.4395C327.177 16.0254 326.811 16.5527 326.332 17.0215C325.864 17.4805 325.292 17.8662 324.619 18.1787C323.954 18.4814 323.207 18.6768 322.377 18.7646C323.11 18.9893 323.745 19.2822 324.282 19.6436C324.819 20.0049 325.258 20.4102 325.6 20.8594C325.952 21.3086 326.21 21.7969 326.376 22.3242C326.542 22.8418 326.625 23.3691 326.625 23.9062C326.625 24.7168 326.45 25.5225 326.098 26.3232C325.746 27.1143 325.244 27.8271 324.589 28.4619C323.945 29.0869 323.154 29.5947 322.216 29.9854C321.279 30.376 320.224 30.5713 319.052 30.5713C318.076 30.5713 317.231 30.4443 316.518 30.1904C315.805 29.9463 315.219 29.6143 314.76 29.1943C314.301 28.7744 313.959 28.2959 313.735 27.7588C313.51 27.2217 313.398 26.6602 313.398 26.0742C313.398 25.8496 313.417 25.5957 313.456 25.3125C313.496 25.0293 313.569 24.7314 313.676 24.4189C313.784 24.1064 313.925 23.7842 314.101 23.4521C314.277 23.1201 314.506 22.793 314.789 22.4707L315.141 22.9248C314.916 23.1885 314.731 23.4668 314.584 23.7598C314.438 24.043 314.321 24.3213 314.233 24.5947C314.155 24.8682 314.101 25.1318 314.072 25.3857C314.042 25.6299 314.028 25.8447 314.028 26.0303C314.028 26.5869 314.135 27.0996 314.35 27.5684C314.575 28.0273 314.882 28.4277 315.273 28.7695C315.673 29.1113 316.152 29.3799 316.708 29.5752C317.275 29.7607 317.895 29.8535 318.569 29.8535C319.496 29.8535 320.317 29.6729 321.03 29.3115C321.752 28.9502 322.358 28.4814 322.846 27.9053C323.334 27.3193 323.705 26.665 323.959 25.9424C324.213 25.21 324.34 24.4775 324.34 23.7451C324.34 23.1787 324.262 22.6318 324.106 22.1045C323.95 21.5771 323.71 21.0986 323.388 20.6689C323.066 20.2393 322.661 19.8779 322.172 19.585C321.684 19.2822 321.108 19.0771 320.444 18.9697C320.395 18.9893 320.317 19.0137 320.209 19.043C320.102 19.0723 319.999 19.0869 319.902 19.0869C319.619 19.0869 319.477 19.0039 319.477 18.8379C319.477 18.6816 319.619 18.6035 319.902 18.6035C320.009 18.6035 320.112 18.6182 320.209 18.6475C320.307 18.667 320.39 18.6914 320.458 18.7207C321.367 18.623 322.138 18.4082 322.773 18.0762C323.417 17.7344 323.945 17.3193 324.355 16.8311C324.765 16.3428 325.063 15.8057 325.248 15.2197C325.444 14.624 325.541 14.0283 325.541 13.4326C325.541 12.7881 325.439 12.2363 325.234 11.7773C325.038 11.3184 324.775 10.9424 324.443 10.6494C324.121 10.3564 323.74 10.1416 323.3 10.0049C322.871 9.86816 322.421 9.7998 321.953 9.7998C321.376 9.7998 320.8 9.89746 320.224 10.0928C319.648 10.2783 319.13 10.5469 318.671 10.8984C318.212 11.2402 317.836 11.6602 317.543 12.1582C317.26 12.6465 317.119 13.1885 317.119 13.7842H316.489Z" fill="black"/>
</svg>
