<svg width="107" height="44" viewBox="0 0 107 44" fill="none" xmlns="http://www.w3.org/2000/svg">
<rect x="0.25" y="0.25" width="106.5" height="43.5" rx="21.75" fill="url(#paint0_linear_729_399)"/>
<rect x="0.25" y="0.25" width="106.5" height="43.5" rx="21.75" stroke="black" stroke-width="0.5"/>
<path d="M20.884 21.926H29.938V22.7H20.884V21.926ZM20.506 25.004H30.37V25.796H20.506V25.004ZM26.842 22.16H27.67V29.99H26.842V22.16ZM23.044 22.214H23.836V25.4C23.836 25.664 23.8 26 23.728 26.408C23.668 26.804 23.548 27.23 23.368 27.686C23.188 28.142 22.93 28.586 22.594 29.018C22.27 29.462 21.844 29.864 21.316 30.224C21.244 30.128 21.148 30.026 21.028 29.918C20.908 29.81 20.8 29.72 20.704 29.648C21.364 29.24 21.856 28.772 22.18 28.244C22.516 27.716 22.744 27.194 22.864 26.678C22.984 26.162 23.044 25.73 23.044 25.382V22.214ZM18.598 17.318H23.962V18.02H18.598V17.318ZM26.86 17.318H32.278V18.02H26.86V17.318ZM31.936 14.798H32.8V29.036C32.8 29.36 32.752 29.606 32.656 29.774C32.56 29.954 32.398 30.086 32.17 30.17C31.942 30.242 31.6 30.284 31.144 30.296C30.7 30.32 30.136 30.326 29.452 30.314C29.44 30.242 29.422 30.152 29.398 30.044C29.374 29.936 29.338 29.828 29.29 29.72C29.254 29.612 29.206 29.516 29.146 29.432C29.71 29.444 30.214 29.45 30.658 29.45C31.114 29.45 31.414 29.444 31.558 29.432C31.702 29.42 31.798 29.384 31.846 29.324C31.906 29.276 31.936 29.18 31.936 29.036V14.798ZM18.67 14.798H24.466V20.666H18.67V19.928H23.638V15.536H18.67V14.798ZM32.314 14.798V15.536H27.148V19.946H32.314V20.666H26.302V14.798H32.314ZM18.13 14.798H18.994V30.368H18.13V14.798ZM44.122 28.712H50.908V29.504H44.122V28.712ZM43.6 23.15H51.304V30.278H50.476V23.978H44.428V30.35H43.6V23.15ZM48.658 16.958L49.342 16.634C49.75 17.162 50.152 17.726 50.548 18.326C50.956 18.926 51.322 19.52 51.646 20.108C51.982 20.684 52.24 21.2 52.42 21.656L51.682 22.034C51.502 21.566 51.244 21.038 50.908 20.45C50.584 19.862 50.224 19.262 49.828 18.65C49.444 18.038 49.054 17.474 48.658 16.958ZM42.862 21.44C42.862 21.38 42.844 21.296 42.808 21.188C42.772 21.08 42.73 20.972 42.682 20.864C42.646 20.744 42.61 20.642 42.574 20.558C42.73 20.534 42.904 20.42 43.096 20.216C43.288 20 43.498 19.724 43.726 19.388C43.846 19.22 44.026 18.956 44.266 18.596C44.506 18.224 44.776 17.792 45.076 17.3C45.388 16.796 45.694 16.256 45.994 15.68C46.306 15.104 46.582 14.528 46.822 13.952L47.722 14.24C47.314 15.068 46.882 15.884 46.426 16.688C45.97 17.48 45.502 18.236 45.022 18.956C44.554 19.676 44.074 20.33 43.582 20.918V20.936C43.582 20.936 43.546 20.954 43.474 20.99C43.402 21.014 43.318 21.056 43.222 21.116C43.138 21.164 43.054 21.218 42.97 21.278C42.898 21.338 42.862 21.392 42.862 21.44ZM42.862 21.44V20.72L43.492 20.378L51.358 19.892C51.382 20.024 51.406 20.162 51.43 20.306C51.466 20.45 51.502 20.57 51.538 20.666C50.038 20.786 48.784 20.882 47.776 20.954C46.78 21.014 45.97 21.074 45.346 21.134C44.734 21.182 44.266 21.224 43.942 21.26C43.618 21.284 43.378 21.314 43.222 21.35C43.078 21.386 42.958 21.416 42.862 21.44ZM36.49 23.87L36.994 23.276C37.486 23.612 37.996 23.984 38.524 24.392C39.064 24.788 39.586 25.19 40.09 25.598C40.606 26.006 41.074 26.408 41.494 26.804C41.926 27.2 42.28 27.566 42.556 27.902L41.998 28.586C41.722 28.25 41.368 27.884 40.936 27.488C40.516 27.08 40.054 26.666 39.55 26.246C39.058 25.814 38.548 25.4 38.02 25.004C37.492 24.596 36.982 24.218 36.49 23.87ZM36.49 23.87C36.694 23.27 36.91 22.568 37.138 21.764C37.366 20.948 37.582 20.096 37.786 19.208C38.002 18.308 38.194 17.414 38.362 16.526C38.542 15.626 38.68 14.798 38.776 14.042L39.586 14.096C39.478 14.888 39.334 15.734 39.154 16.634C38.974 17.534 38.776 18.44 38.56 19.352C38.356 20.252 38.14 21.11 37.912 21.926C37.684 22.73 37.468 23.438 37.264 24.05L36.49 23.87ZM40.918 16.544H41.746V18.758C41.746 19.454 41.716 20.186 41.656 20.954C41.596 21.722 41.47 22.508 41.278 23.312C41.098 24.116 40.81 24.926 40.414 25.742C40.03 26.558 39.508 27.356 38.848 28.136C38.2 28.904 37.384 29.636 36.4 30.332C36.364 30.272 36.304 30.206 36.22 30.134C36.148 30.062 36.07 29.99 35.986 29.918C35.914 29.846 35.842 29.792 35.77 29.756C36.97 28.916 37.918 28.028 38.614 27.092C39.31 26.144 39.82 25.19 40.144 24.23C40.48 23.258 40.69 22.31 40.774 21.386C40.87 20.45 40.918 19.574 40.918 18.758V16.544ZM35.86 18.29C36.436 18.266 37.084 18.236 37.804 18.2C38.536 18.152 39.31 18.11 40.126 18.074C40.954 18.026 41.788 17.984 42.628 17.948L42.61 18.722C41.422 18.794 40.24 18.866 39.064 18.938C37.9 19.01 36.874 19.07 35.986 19.118L35.86 18.29ZM60.322 19.028V21.692H63.85V19.028H60.322ZM60.322 22.466V25.13H63.85V22.466H60.322ZM60.322 15.626V18.254H63.85V15.626H60.322ZM59.548 14.834H64.66V25.94H59.548V14.834ZM62.824 26.804L63.472 26.426C63.748 26.714 64.024 27.026 64.3 27.362C64.576 27.698 64.834 28.028 65.074 28.352C65.314 28.676 65.506 28.964 65.65 29.216L64.948 29.684C64.816 29.432 64.63 29.138 64.39 28.802C64.15 28.466 63.892 28.124 63.616 27.776C63.352 27.416 63.088 27.092 62.824 26.804ZM60.448 26.426L61.276 26.66C60.964 27.356 60.562 28.04 60.07 28.712C59.59 29.372 59.092 29.93 58.576 30.386C58.528 30.338 58.456 30.278 58.36 30.206C58.276 30.146 58.192 30.08 58.108 30.008C58.024 29.948 57.946 29.9 57.874 29.864C58.378 29.42 58.858 28.898 59.314 28.298C59.782 27.698 60.16 27.074 60.448 26.426ZM69.52 13.988H70.348V29.072C70.348 29.42 70.294 29.672 70.186 29.828C70.078 29.984 69.916 30.098 69.7 30.17C69.472 30.242 69.142 30.29 68.71 30.314C68.29 30.338 67.702 30.35 66.946 30.35C66.922 30.242 66.88 30.104 66.82 29.936C66.772 29.78 66.712 29.636 66.64 29.504C67.228 29.516 67.744 29.522 68.188 29.522C68.644 29.522 68.944 29.516 69.088 29.504C69.244 29.504 69.352 29.474 69.412 29.414C69.484 29.354 69.52 29.246 69.52 29.09V13.988ZM66.28 15.86H67.09V26.066H66.28V15.86ZM55.48 14.798L56.002 14.186C56.35 14.354 56.704 14.546 57.064 14.762C57.424 14.978 57.76 15.206 58.072 15.446C58.396 15.674 58.66 15.89 58.864 16.094L58.324 16.814C58.132 16.598 57.874 16.37 57.55 16.13C57.238 15.89 56.902 15.656 56.542 15.428C56.182 15.188 55.828 14.978 55.48 14.798ZM54.652 19.676L55.138 19.046C55.51 19.178 55.888 19.346 56.272 19.55C56.656 19.742 57.016 19.946 57.352 20.162C57.688 20.378 57.964 20.576 58.18 20.756L57.694 21.476C57.466 21.284 57.184 21.08 56.848 20.864C56.512 20.648 56.152 20.438 55.768 20.234C55.384 20.018 55.012 19.832 54.652 19.676ZM55.048 29.594C55.312 29.138 55.594 28.586 55.894 27.938C56.194 27.29 56.494 26.612 56.794 25.904C57.106 25.196 57.388 24.518 57.64 23.87L58.324 24.338C58.096 24.962 57.838 25.616 57.55 26.3C57.274 26.984 56.986 27.656 56.686 28.316C56.386 28.964 56.098 29.558 55.822 30.098L55.048 29.594ZM74.686 17.588H79.744V18.344H74.686V17.588ZM74.686 20.252H79.762V21.008H74.686V20.252ZM76.9 15.302H77.656V23.546H76.9V15.302ZM77.278 24.626L77.764 24.428C77.992 24.8 78.22 25.214 78.448 25.67C78.688 26.114 78.862 26.492 78.97 26.804L78.448 27.056C78.328 26.72 78.154 26.324 77.926 25.868C77.71 25.412 77.494 24.998 77.278 24.626ZM76.198 24.95L76.738 24.824C76.894 25.292 77.056 25.802 77.224 26.354C77.392 26.894 77.512 27.362 77.584 27.758L77.008 27.902C76.936 27.506 76.822 27.032 76.666 26.48C76.522 25.928 76.366 25.418 76.198 24.95ZM75.136 25.184L75.712 25.112C75.796 25.628 75.862 26.186 75.91 26.786C75.97 27.386 76.006 27.908 76.018 28.352L75.424 28.442C75.412 27.998 75.382 27.476 75.334 26.876C75.286 26.264 75.22 25.7 75.136 25.184ZM74.092 24.878L74.686 25.076C74.638 25.472 74.566 25.922 74.47 26.426C74.386 26.918 74.29 27.404 74.182 27.884C74.086 28.364 73.978 28.79 73.858 29.162L73.228 28.892C73.36 28.532 73.48 28.118 73.588 27.65C73.708 27.17 73.81 26.684 73.894 26.192C73.978 25.7 74.044 25.262 74.092 24.878ZM79.348 23.078H80.122C80.122 23.078 80.122 23.132 80.122 23.24C80.122 23.348 80.116 23.432 80.104 23.492C80.056 24.98 80.002 26.168 79.942 27.056C79.882 27.932 79.81 28.586 79.726 29.018C79.654 29.45 79.558 29.75 79.438 29.918C79.33 30.05 79.21 30.14 79.078 30.188C78.958 30.236 78.796 30.266 78.592 30.278C78.436 30.29 78.232 30.29 77.98 30.278C77.728 30.278 77.47 30.272 77.206 30.26C77.194 30.152 77.17 30.026 77.134 29.882C77.098 29.75 77.05 29.636 76.99 29.54C77.29 29.564 77.566 29.576 77.818 29.576C78.07 29.588 78.25 29.594 78.358 29.594C78.454 29.594 78.538 29.582 78.61 29.558C78.682 29.534 78.742 29.48 78.79 29.396C78.874 29.288 78.952 29.024 79.024 28.604C79.096 28.184 79.156 27.548 79.204 26.696C79.252 25.832 79.3 24.68 79.348 23.24V23.078ZM80.158 14.852V15.644H74.992V23.078H79.798V23.87H74.236V14.852H80.158ZM81.706 21.224V23.852H83.686V21.224H81.706ZM81.004 20.504H84.406V24.554H81.004V20.504ZM86.134 21.224V23.852H88.222V21.224H86.134ZM85.432 20.504H88.96V24.554H85.432V20.504ZM82.354 25.256L83.146 25.382C82.918 26.426 82.57 27.374 82.102 28.226C81.634 29.066 81.082 29.774 80.446 30.35C80.41 30.302 80.35 30.242 80.266 30.17C80.194 30.11 80.116 30.044 80.032 29.972C79.948 29.912 79.876 29.858 79.816 29.81C80.44 29.282 80.968 28.628 81.4 27.848C81.832 27.068 82.15 26.204 82.354 25.256ZM82.246 18.056H87.7V18.812H82.246V18.056ZM82.048 27.29L82.552 26.786C82.972 27.038 83.404 27.338 83.848 27.686C84.304 28.022 84.652 28.328 84.892 28.604L84.406 29.216C84.142 28.928 83.788 28.604 83.344 28.244C82.9 27.884 82.468 27.566 82.048 27.29ZM86.89 25.13L87.718 25.238C87.514 26.33 87.172 27.308 86.692 28.172C86.212 29.024 85.63 29.732 84.946 30.296C84.91 30.26 84.85 30.206 84.766 30.134C84.682 30.062 84.592 29.99 84.496 29.918C84.412 29.858 84.334 29.804 84.262 29.756C84.934 29.24 85.492 28.592 85.936 27.812C86.38 27.02 86.698 26.126 86.89 25.13ZM86.368 27.488L86.908 26.966C87.256 27.194 87.604 27.452 87.952 27.74C88.3 28.016 88.624 28.292 88.924 28.568C89.236 28.844 89.482 29.09 89.662 29.306L89.086 29.918C88.906 29.69 88.666 29.432 88.366 29.144C88.066 28.856 87.742 28.568 87.394 28.28C87.046 27.992 86.704 27.728 86.368 27.488ZM84.712 13.844L85.576 14.096C85.024 15.08 84.304 16.022 83.416 16.922C82.54 17.822 81.562 18.608 80.482 19.28C80.446 19.22 80.386 19.16 80.302 19.1C80.23 19.028 80.152 18.962 80.068 18.902C79.996 18.842 79.93 18.794 79.87 18.758C80.578 18.326 81.238 17.846 81.85 17.318C82.474 16.79 83.032 16.226 83.524 15.626C84.016 15.026 84.412 14.432 84.712 13.844ZM85.036 14.294C85.372 14.798 85.804 15.314 86.332 15.842C86.872 16.358 87.448 16.844 88.06 17.3C88.672 17.744 89.26 18.116 89.824 18.416C89.764 18.476 89.698 18.548 89.626 18.632C89.566 18.716 89.506 18.8 89.446 18.884C89.398 18.968 89.356 19.046 89.32 19.118C88.768 18.758 88.18 18.338 87.556 17.858C86.932 17.366 86.344 16.844 85.792 16.292C85.24 15.74 84.79 15.2 84.442 14.672L85.036 14.294Z" fill="black"/>
<defs>
<linearGradient id="paint0_linear_729_399" x1="53.5" y1="0" x2="53.5" y2="44" gradientUnits="userSpaceOnUse">
<stop stop-color="white"/>
<stop offset="0.5" stop-color="white" stop-opacity="0.2"/>
<stop offset="1" stop-color="white"/>
</linearGradient>
</defs>
</svg>
